<svg xmlns="http://www.w3.org/2000/svg" xmlns:xlink="http://www.w3.org/1999/xlink" width="64" zoomAndPan="magnify" viewBox="0 0 48 48" height="64" preserveAspectRatio="xMidYMid meet" version="1.0"><defs><g/></defs><g fill="#fbc5ff" fill-opacity="0.4"><g transform="translate(6.764894, 28.462855)"><g><path d="M 5.046875 0.140625 C 4.191406 0.140625 3.421875 -0.210938 2.734375 -0.921875 C 2.046875 -1.640625 1.703125 -2.816406 1.703125 -4.453125 C 1.703125 -5.773438 1.859375 -7.078125 2.171875 -8.359375 C 2.484375 -9.640625 2.832031 -10.9375 3.21875 -12.25 C 3.613281 -13.570312 3.945312 -14.9375 4.21875 -16.34375 C 4.488281 -17.757812 4.578125 -19.253906 4.484375 -20.828125 C 3.847656 -20.734375 3.21875 -20.566406 2.59375 -20.328125 C 1.976562 -20.085938 1.375 -19.742188 0.78125 -19.296875 C 0.78125 -20.785156 0.910156 -22 1.171875 -22.9375 C 1.429688 -23.875 1.941406 -24.554688 2.703125 -24.984375 C 3.460938 -25.410156 4.59375 -25.625 6.09375 -25.625 C 6.894531 -25.625 7.789062 -25.5625 8.78125 -25.4375 C 9.78125 -25.320312 10.804688 -25.207031 11.859375 -25.09375 C 12.921875 -24.976562 13.925781 -24.921875 14.875 -24.921875 C 15.800781 -24.921875 16.628906 -25.007812 17.359375 -25.1875 C 18.097656 -25.363281 18.671875 -25.6875 19.078125 -26.15625 C 19.554688 -25.851562 19.914062 -25.429688 20.15625 -24.890625 C 20.40625 -24.359375 20.53125 -23.785156 20.53125 -23.171875 C 20.53125 -22.523438 20.378906 -21.898438 20.078125 -21.296875 C 19.785156 -20.691406 19.332031 -20.191406 18.71875 -19.796875 C 18.101562 -19.410156 17.296875 -19.21875 16.296875 -19.21875 C 15.253906 -19.21875 14.113281 -19.382812 12.875 -19.71875 C 11.644531 -20.050781 10.378906 -20.335938 9.078125 -20.578125 C 9.191406 -20.054688 9.28125 -19.53125 9.34375 -19 C 9.40625 -18.476562 9.4375 -17.945312 9.4375 -17.40625 C 9.4375 -16.8125 9.410156 -16.222656 9.359375 -15.640625 C 9.316406 -15.054688 9.242188 -14.457031 9.140625 -13.84375 C 9.640625 -14.101562 10.242188 -14.335938 10.953125 -14.546875 C 11.671875 -14.765625 12.398438 -14.945312 13.140625 -15.09375 C 13.890625 -15.238281 14.5625 -15.3125 15.15625 -15.3125 C 15.539062 -15.3125 15.875 -15.273438 16.15625 -15.203125 C 16.394531 -14.703125 16.515625 -14.097656 16.515625 -13.390625 C 16.515625 -12.242188 16.226562 -11.078125 15.65625 -9.890625 L 15.40625 -9.78125 C 14.53125 -10.257812 13.515625 -10.628906 12.359375 -10.890625 C 11.210938 -11.148438 10.007812 -11.328125 8.75 -11.421875 C 8.519531 -10.066406 8.296875 -8.691406 8.078125 -7.296875 C 7.867188 -5.898438 7.765625 -4.460938 7.765625 -2.984375 C 7.765625 -2.679688 7.769531 -2.363281 7.78125 -2.03125 C 7.789062 -1.695312 7.804688 -1.363281 7.828125 -1.03125 C 7.046875 -0.25 6.117188 0.140625 5.046875 0.140625 Z M 5.046875 0.140625 "/></g></g></g><g fill="#fbc5ff" fill-opacity="1"><g transform="translate(5.191836, 26.889797)"><g><path d="M 5.046875 0.140625 C 4.191406 0.140625 3.421875 -0.210938 2.734375 -0.921875 C 2.046875 -1.640625 1.703125 -2.816406 1.703125 -4.453125 C 1.703125 -5.773438 1.859375 -7.078125 2.171875 -8.359375 C 2.484375 -9.640625 2.832031 -10.9375 3.21875 -12.25 C 3.613281 -13.570312 3.945312 -14.9375 4.21875 -16.34375 C 4.488281 -17.757812 4.578125 -19.253906 4.484375 -20.828125 C 3.847656 -20.734375 3.21875 -20.566406 2.59375 -20.328125 C 1.976562 -20.085938 1.375 -19.742188 0.78125 -19.296875 C 0.78125 -20.785156 0.910156 -22 1.171875 -22.9375 C 1.429688 -23.875 1.941406 -24.554688 2.703125 -24.984375 C 3.460938 -25.410156 4.59375 -25.625 6.09375 -25.625 C 6.894531 -25.625 7.789062 -25.5625 8.78125 -25.4375 C 9.78125 -25.320312 10.804688 -25.207031 11.859375 -25.09375 C 12.921875 -24.976562 13.925781 -24.921875 14.875 -24.921875 C 15.800781 -24.921875 16.628906 -25.007812 17.359375 -25.1875 C 18.097656 -25.363281 18.671875 -25.6875 19.078125 -26.15625 C 19.554688 -25.851562 19.914062 -25.429688 20.15625 -24.890625 C 20.40625 -24.359375 20.53125 -23.785156 20.53125 -23.171875 C 20.53125 -22.523438 20.378906 -21.898438 20.078125 -21.296875 C 19.785156 -20.691406 19.332031 -20.191406 18.71875 -19.796875 C 18.101562 -19.410156 17.296875 -19.21875 16.296875 -19.21875 C 15.253906 -19.21875 14.113281 -19.382812 12.875 -19.71875 C 11.644531 -20.050781 10.378906 -20.335938 9.078125 -20.578125 C 9.191406 -20.054688 9.28125 -19.53125 9.34375 -19 C 9.40625 -18.476562 9.4375 -17.945312 9.4375 -17.40625 C 9.4375 -16.8125 9.410156 -16.222656 9.359375 -15.640625 C 9.316406 -15.054688 9.242188 -14.457031 9.140625 -13.84375 C 9.640625 -14.101562 10.242188 -14.335938 10.953125 -14.546875 C 11.671875 -14.765625 12.398438 -14.945312 13.140625 -15.09375 C 13.890625 -15.238281 14.5625 -15.3125 15.15625 -15.3125 C 15.539062 -15.3125 15.875 -15.273438 16.15625 -15.203125 C 16.394531 -14.703125 16.515625 -14.097656 16.515625 -13.390625 C 16.515625 -12.242188 16.226562 -11.078125 15.65625 -9.890625 L 15.40625 -9.78125 C 14.53125 -10.257812 13.515625 -10.628906 12.359375 -10.890625 C 11.210938 -11.148438 10.007812 -11.328125 8.75 -11.421875 C 8.519531 -10.066406 8.296875 -8.691406 8.078125 -7.296875 C 7.867188 -5.898438 7.765625 -4.460938 7.765625 -2.984375 C 7.765625 -2.679688 7.769531 -2.363281 7.78125 -2.03125 C 7.789062 -1.695312 7.804688 -1.363281 7.828125 -1.03125 C 7.046875 -0.25 6.117188 0.140625 5.046875 0.140625 Z M 5.046875 0.140625 "/></g></g></g><g fill="#fbc5ff" fill-opacity="1"><g transform="translate(19.226548, 45.603389)"><g><path d="M 5.507812 0.882812 C 4.371094 0.882812 3.355469 0.421875 2.464844 -0.503906 C 1.578125 -1.417969 1.132812 -2.867188 1.132812 -4.847656 C 1.132812 -6.355469 1.308594 -7.832031 1.660156 -9.285156 C 1.996094 -10.691406 2.382812 -12.121094 2.8125 -13.570312 C 3.234375 -14.980469 3.589844 -16.445312 3.882812 -17.960938 C 4.167969 -19.4375 4.261719 -21 4.160156 -22.644531 L 4.886719 -22.6875 L 4.992188 -21.96875 C 4.347656 -21.875 3.714844 -21.707031 3.09375 -21.46875 C 2.484375 -21.234375 1.886719 -20.890625 1.292969 -20.441406 L 0.125 -19.554688 L 0.125 -21.019531 C 0.125 -22.714844 0.277344 -24.105469 0.578125 -25.191406 C 0.917969 -26.40625 1.589844 -27.296875 2.589844 -27.859375 C 3.527344 -28.386719 4.875 -28.652344 6.632812 -28.652344 C 7.539062 -28.652344 8.550781 -28.585938 9.664062 -28.453125 L 13.019531 -28.066406 C 14.140625 -27.941406 15.203125 -27.875 16.210938 -27.875 C 17.164062 -27.875 18.011719 -27.964844 18.753906 -28.148438 C 19.402344 -28.304688 19.898438 -28.582031 20.234375 -28.976562 L 20.648438 -29.464844 L 21.183594 -29.117188 C 21.820312 -28.703125 22.300781 -28.144531 22.628906 -27.4375 C 22.949219 -26.757812 23.105469 -26.027344 23.105469 -25.25 C 23.105469 -24.4375 22.917969 -23.652344 22.546875 -22.890625 C 22.164062 -22.109375 21.578125 -21.46875 20.789062 -20.96875 C 20 -20.46875 18.988281 -20.214844 17.761719 -20.214844 C 16.5625 -20.214844 15.257812 -20.40625 13.851562 -20.785156 C 12.527344 -21.140625 11.164062 -21.445312 9.761719 -21.703125 L 9.890625 -22.417969 L 10.597656 -22.578125 C 10.734375 -21.984375 10.835938 -21.386719 10.902344 -20.792969 C 10.972656 -20.195312 11.003906 -19.585938 11.003906 -18.964844 C 11.003906 -18.300781 10.980469 -17.640625 10.925781 -16.988281 C 10.871094 -16.335938 10.792969 -15.664062 10.6875 -14.976562 L 9.96875 -15.085938 L 9.628906 -15.730469 C 10.214844 -16.039062 10.917969 -16.3125 11.738281 -16.558594 C 12.535156 -16.800781 13.355469 -17 14.195312 -17.160156 C 15.054688 -17.324219 15.828125 -17.40625 16.523438 -17.40625 C 16.996094 -17.40625 17.417969 -17.359375 17.785156 -17.265625 L 18.117188 -17.183594 L 18.265625 -16.875 C 18.570312 -16.230469 18.722656 -15.46875 18.722656 -14.582031 C 18.722656 -13.230469 18.390625 -11.859375 17.722656 -10.46875 L 17.601562 -10.222656 L 16.757812 -9.859375 L 16.449219 -10.027344 C 15.550781 -10.511719 14.507812 -10.890625 13.316406 -11.160156 C 12.097656 -11.433594 10.820312 -11.625 9.484375 -11.722656 L 9.539062 -12.449219 L 10.257812 -12.324219 C 10 -10.855469 9.753906 -9.359375 9.523438 -7.839844 C 9.296875 -6.351562 9.183594 -4.824219 9.183594 -3.257812 C 9.183594 -2.929688 9.1875 -2.589844 9.203125 -2.238281 C 9.214844 -1.882812 9.234375 -1.53125 9.257812 -1.175781 L 9.28125 -0.84375 L 9.046875 -0.609375 C 8.050781 0.386719 6.871094 0.882812 5.507812 0.882812 Z M 5.507812 -0.570312 C 6.46875 -0.570312 7.308594 -0.929688 8.019531 -1.640625 L 8.53125 -1.125 L 7.808594 -1.074219 C 7.78125 -1.445312 7.761719 -1.8125 7.746094 -2.183594 C 7.734375 -2.554688 7.726562 -2.914062 7.726562 -3.257812 C 7.726562 -4.898438 7.847656 -6.5 8.085938 -8.058594 C 8.320312 -9.589844 8.566406 -11.097656 8.824219 -12.574219 L 8.9375 -13.226562 L 9.597656 -13.175781 C 11 -13.070312 12.347656 -12.871094 13.636719 -12.578125 C 14.957031 -12.277344 16.125 -11.855469 17.140625 -11.304688 L 16.792969 -10.664062 L 16.507812 -11.335938 L 16.777344 -11.449219 L 17.066406 -10.78125 L 16.410156 -11.097656 C 16.980469 -12.289062 17.269531 -13.453125 17.269531 -14.582031 C 17.269531 -15.25 17.164062 -15.804688 16.953125 -16.25 L 17.609375 -16.5625 L 17.433594 -15.855469 C 17.179688 -15.917969 16.875 -15.949219 16.523438 -15.949219 C 15.921875 -15.949219 15.238281 -15.875 14.46875 -15.730469 C 13.675781 -15.578125 12.90625 -15.390625 12.15625 -15.167969 C 11.421875 -14.945312 10.808594 -14.707031 10.304688 -14.441406 L 9.03125 -13.773438 L 9.25 -15.199219 C 9.347656 -15.851562 9.425781 -16.488281 9.476562 -17.105469 C 9.527344 -17.71875 9.550781 -18.339844 9.550781 -18.964844 C 9.550781 -19.53125 9.519531 -20.085938 9.457031 -20.628906 C 9.398438 -21.171875 9.304688 -21.714844 9.179688 -22.257812 L 8.9375 -23.328125 L 10.019531 -23.132812 C 11.460938 -22.871094 12.863281 -22.554688 14.230469 -22.1875 C 15.511719 -21.84375 16.691406 -21.671875 17.761719 -21.671875 C 18.707031 -21.671875 19.457031 -21.847656 20.011719 -22.199219 C 20.566406 -22.550781 20.976562 -22.996094 21.242188 -23.53125 C 21.515625 -24.089844 21.652344 -24.664062 21.652344 -25.25 C 21.652344 -25.8125 21.539062 -26.339844 21.3125 -26.820312 C 21.097656 -27.277344 20.792969 -27.636719 20.390625 -27.898438 L 20.789062 -28.507812 L 21.34375 -28.035156 C 20.800781 -27.398438 20.050781 -26.964844 19.097656 -26.734375 C 18.238281 -26.527344 17.277344 -26.421875 16.210938 -26.421875 C 15.152344 -26.421875 14.03125 -26.488281 12.851562 -26.621094 L 9.492188 -27.007812 C 8.4375 -27.132812 7.484375 -27.199219 6.632812 -27.199219 C 5.128906 -27.199219 4.019531 -26.996094 3.304688 -26.59375 C 2.652344 -26.226562 2.210938 -25.628906 1.980469 -24.800781 C 1.714844 -23.84375 1.582031 -22.582031 1.582031 -21.019531 L 0.851562 -21.019531 L 0.414062 -21.601562 C 1.113281 -22.132812 1.832031 -22.542969 2.570312 -22.824219 C 3.292969 -23.101562 4.027344 -23.296875 4.78125 -23.410156 L 5.566406 -23.523438 L 5.613281 -22.734375 C 5.71875 -20.964844 5.617188 -19.28125 5.308594 -17.683594 C 5.007812 -16.121094 4.640625 -14.613281 4.207031 -13.152344 C 3.785156 -11.730469 3.40625 -10.328125 3.074219 -8.945312 C 2.75 -7.605469 2.589844 -6.238281 2.589844 -4.847656 C 2.589844 -3.261719 2.894531 -2.148438 3.507812 -1.515625 C 4.117188 -0.886719 4.78125 -0.570312 5.507812 -0.570312 Z M 5.507812 -0.570312 "/></g></g></g></svg>