<svg xmlns="http://www.w3.org/2000/svg" xmlns:xlink="http://www.w3.org/1999/xlink" width="500" zoomAndPan="magnify" viewBox="0 0 375 225" height="300" preserveAspectRatio="xMidYMid meet" version="1.0"><defs><g/><clipPath id="5ec200accc"><path d="M 0.238281 23 L 76 23 L 76 109 L 0.238281 109 Z M 0.238281 23 " clip-rule="nonzero"/></clipPath><clipPath id="7113c96a5f"><path d="M 0.238281 100 L 76 100 L 76 185 L 0.238281 185 Z M 0.238281 100 " clip-rule="nonzero"/></clipPath><clipPath id="634421c1a8"><rect x="0" width="358" y="0" height="222"/></clipPath></defs><g transform="matrix(1, 0, 0, 1, 6, 3)"><g clip-path="url(#634421c1a8)"><g fill="#fbc5ff" fill-opacity="0.4"><g transform="translate(8.21475, 105.504005)"><g><path d="M 16.890625 2.609375 C 16.191406 4.359375 15.265625 5.601562 14.109375 6.34375 C 12.960938 7.09375 11.707031 7.441406 10.34375 7.390625 C 8.988281 7.335938 7.613281 7 6.21875 6.375 C 4.820312 5.75 3.515625 4.929688 2.296875 3.921875 C 1.078125 2.910156 0.0390625 1.800781 -0.8125 0.59375 C -1.664062 -0.601562 -2.226562 -1.773438 -2.5 -2.921875 C -2.78125 -4.078125 -2.660156 -5.109375 -2.140625 -6.015625 C -1.484375 -7.191406 -0.664062 -8.726562 0.3125 -10.625 C 1.289062 -12.53125 2.363281 -14.640625 3.53125 -16.953125 C 4.695312 -19.273438 5.875 -21.65625 7.0625 -24.09375 C 6.363281 -24.0625 5.65625 -24.019531 4.9375 -23.96875 C 4.226562 -23.914062 3.523438 -23.851562 2.828125 -23.78125 C 1.847656 -23.707031 1.0625 -24.0625 0.46875 -24.84375 C -0.125 -25.632812 -0.515625 -26.628906 -0.703125 -27.828125 C -0.898438 -29.035156 -0.882812 -30.273438 -0.65625 -31.546875 C -0.425781 -32.816406 0.0351562 -33.910156 0.734375 -34.828125 C 1.429688 -35.753906 2.367188 -36.304688 3.546875 -36.484375 C 5.359375 -36.765625 7.335938 -37.035156 9.484375 -37.296875 C 11.628906 -37.554688 13.644531 -37.789062 15.53125 -38 C 16.320312 -39.5 17.015625 -40.753906 17.609375 -41.765625 C 18.203125 -42.773438 18.769531 -43.6875 19.3125 -44.5 C 19.851562 -45.320312 20.410156 -46.191406 20.984375 -47.109375 C 21.554688 -48.035156 22.226562 -49.144531 23 -50.4375 C 20.519531 -50.363281 18.257812 -50.257812 16.21875 -50.125 C 14.1875 -49.988281 12.523438 -49.847656 11.234375 -49.703125 C 10.015625 -49.566406 8.960938 -49.863281 8.078125 -50.59375 C 7.191406 -51.320312 6.46875 -52.347656 5.90625 -53.671875 C 5.34375 -55.003906 4.941406 -56.476562 4.703125 -58.09375 C 4.460938 -59.71875 4.375 -61.382812 4.4375 -63.09375 C 4.507812 -64.800781 4.726562 -66.398438 5.09375 -67.890625 C 5.457031 -69.390625 5.953125 -70.660156 6.578125 -71.703125 C 7.210938 -72.753906 7.984375 -73.4375 8.890625 -73.75 C 10.835938 -74.414062 13.210938 -74.957031 16.015625 -75.375 C 18.828125 -75.789062 21.867188 -76.109375 25.140625 -76.328125 C 28.410156 -76.554688 31.742188 -76.695312 35.140625 -76.75 C 38.546875 -76.800781 41.84375 -76.800781 45.03125 -76.75 C 48.21875 -76.695312 51.109375 -76.59375 53.703125 -76.4375 C 56.296875 -76.28125 58.414062 -76.117188 60.0625 -75.953125 C 63.019531 -75.628906 65.359375 -74.945312 67.078125 -73.90625 C 68.804688 -72.863281 70.035156 -71.570312 70.765625 -70.03125 C 71.503906 -68.5 71.851562 -66.84375 71.8125 -65.0625 C 71.78125 -63.289062 71.476562 -61.5 70.90625 -59.6875 C 70.332031 -57.875 69.597656 -56.148438 68.703125 -54.515625 C 67.816406 -52.878906 66.875 -51.453125 65.875 -50.234375 C 64.882812 -49.015625 63.972656 -48.109375 63.140625 -47.515625 C 62.304688 -46.921875 61.660156 -46.765625 61.203125 -47.046875 C 59.703125 -47.984375 57.425781 -48.703125 54.375 -49.203125 C 51.332031 -49.710938 47.929688 -50.085938 44.171875 -50.328125 C 42.984375 -48.453125 41.925781 -46.613281 41 -44.8125 C 40.082031 -43.019531 39.015625 -41.253906 37.796875 -39.515625 C 41.304688 -39.585938 44.269531 -39.5 46.6875 -39.25 C 49.113281 -39.007812 51.113281 -38.609375 52.6875 -38.046875 C 53.832031 -37.628906 54.625 -36.914062 55.0625 -35.90625 C 55.5 -34.894531 55.65625 -33.757812 55.53125 -32.5 C 55.414062 -31.25 55.101562 -29.992188 54.59375 -28.734375 C 54.09375 -27.484375 53.46875 -26.394531 52.71875 -25.46875 C 51.96875 -24.550781 51.164062 -23.9375 50.3125 -23.625 C 49.457031 -23.3125 48.628906 -23.453125 47.828125 -24.046875 C 47.054688 -24.640625 45.800781 -25.070312 44.0625 -25.34375 C 42.320312 -25.625 40.210938 -25.78125 37.734375 -25.8125 C 35.265625 -25.851562 32.546875 -25.804688 29.578125 -25.671875 C 28.191406 -22.597656 26.804688 -19.546875 25.421875 -16.515625 C 24.046875 -13.484375 22.765625 -10.671875 21.578125 -8.078125 C 20.398438 -5.484375 19.398438 -3.253906 18.578125 -1.390625 C 17.765625 0.472656 17.203125 1.804688 16.890625 2.609375 Z M 16.890625 2.609375 "/></g></g></g><g fill="#fbc5ff" fill-opacity="0.4"><g transform="translate(69.10684, 105.504005)"><g><path d="M 27.859375 -47.40625 C 26.847656 -46.320312 25.671875 -45.613281 24.328125 -45.28125 C 22.984375 -44.957031 21.640625 -44.96875 20.296875 -45.3125 C 18.960938 -45.664062 17.753906 -46.3125 16.671875 -47.25 C 15.585938 -48.1875 14.8125 -49.378906 14.34375 -50.828125 C 13.875 -52.273438 13.847656 -53.921875 14.265625 -55.765625 C 14.472656 -56.640625 14.847656 -57.753906 15.390625 -59.109375 C 15.929688 -60.472656 16.566406 -61.867188 17.296875 -63.296875 C 18.035156 -64.722656 18.796875 -65.992188 19.578125 -67.109375 C 20.359375 -68.222656 21.113281 -68.972656 21.84375 -69.359375 C 24.394531 -70.722656 26.972656 -70.863281 29.578125 -69.78125 C 31.078125 -69.113281 32.394531 -68.265625 33.53125 -67.234375 C 34.664062 -66.210938 35.234375 -64.953125 35.234375 -63.453125 C 35.234375 -62.304688 35.015625 -61.007812 34.578125 -59.5625 C 34.140625 -58.113281 33.5625 -56.628906 32.84375 -55.109375 C 32.132812 -53.597656 31.351562 -52.171875 30.5 -50.828125 C 29.644531 -49.484375 28.765625 -48.34375 27.859375 -47.40625 Z M 6.484375 -39.984375 C 7.597656 -40.921875 8.882812 -41.476562 10.34375 -41.65625 C 11.8125 -41.832031 13.257812 -41.703125 14.6875 -41.265625 C 16.113281 -40.828125 17.375 -40.140625 18.46875 -39.203125 C 19.570312 -38.265625 20.34375 -37.148438 20.78125 -35.859375 C 21.21875 -34.566406 21.140625 -33.15625 20.546875 -31.625 C 19.671875 -29.289062 18.84375 -27.140625 18.0625 -25.171875 C 17.28125 -23.203125 16.800781 -21.660156 16.625 -20.546875 C 16.375 -18.898438 16.414062 -17.804688 16.75 -17.265625 C 17.082031 -16.734375 17.628906 -16.597656 18.390625 -16.859375 C 19.160156 -17.117188 20.039062 -17.65625 21.03125 -18.46875 C 22.03125 -19.289062 23.066406 -20.242188 24.140625 -21.328125 C 25.222656 -22.410156 26.253906 -23.488281 27.234375 -24.5625 C 28.210938 -25.644531 29.046875 -26.585938 29.734375 -27.390625 C 30.429688 -28.191406 30.90625 -28.710938 31.15625 -28.953125 C 32.019531 -29.796875 32.894531 -30.160156 33.78125 -30.046875 C 34.675781 -29.941406 35.425781 -29.53125 36.03125 -28.8125 C 36.644531 -28.101562 36.984375 -27.203125 37.046875 -26.109375 C 37.117188 -25.015625 36.773438 -23.875 36.015625 -22.6875 C 35.210938 -21.425781 34.28125 -19.941406 33.21875 -18.234375 C 32.15625 -16.535156 30.976562 -14.757812 29.6875 -12.90625 C 28.394531 -11.0625 27.007812 -9.285156 25.53125 -7.578125 C 24.050781 -5.867188 22.472656 -4.40625 20.796875 -3.1875 C 17.734375 -0.957031 14.660156 0.144531 11.578125 0.125 C 8.492188 0.113281 5.765625 -0.710938 3.390625 -2.359375 C 1.722656 -3.535156 0.296875 -5.039062 -0.890625 -6.875 C -2.078125 -8.707031 -2.882812 -10.769531 -3.3125 -13.0625 C -3.75 -15.363281 -3.722656 -17.804688 -3.234375 -20.390625 C -2.890625 -22.203125 -2.382812 -24.070312 -1.71875 -26 C -1.0625 -27.9375 -0.289062 -29.8125 0.59375 -31.625 C 1.488281 -33.4375 2.429688 -35.0625 3.421875 -36.5 C 4.410156 -37.945312 5.429688 -39.109375 6.484375 -39.984375 Z M 6.484375 -39.984375 "/></g></g></g><g fill="#fbc5ff" fill-opacity="0.4"><g transform="translate(100.101697, 105.504005)"><g><path d="M 39.828125 -48.8125 C 38.015625 -46.519531 36.046875 -44.171875 33.921875 -41.765625 C 31.796875 -39.359375 29.671875 -37.046875 27.546875 -34.828125 C 25.421875 -32.617188 23.429688 -30.617188 21.578125 -28.828125 C 19.734375 -27.035156 18.171875 -25.582031 16.890625 -24.46875 C 15.835938 -21.882812 15.328125 -19.816406 15.359375 -18.265625 C 15.398438 -16.710938 15.835938 -15.648438 16.671875 -15.078125 C 17.503906 -14.503906 18.585938 -14.359375 19.921875 -14.640625 C 21.273438 -14.910156 22.742188 -15.59375 24.328125 -16.6875 C 25.910156 -17.789062 27.503906 -19.070312 29.109375 -20.53125 C 30.710938 -22 32.21875 -23.445312 33.625 -24.875 C 35.039062 -26.300781 36.253906 -27.503906 37.265625 -28.484375 C 38.171875 -29.316406 39.101562 -29.769531 40.0625 -29.84375 C 41.019531 -29.914062 41.890625 -29.695312 42.671875 -29.1875 C 43.460938 -28.6875 44.070312 -27.960938 44.5 -27.015625 C 44.9375 -26.078125 45.085938 -25.003906 44.953125 -23.796875 C 44.816406 -22.597656 44.296875 -21.335938 43.390625 -20.015625 C 42.484375 -18.691406 41.363281 -17.191406 40.03125 -15.515625 C 38.707031 -13.847656 37.257812 -12.097656 35.6875 -10.265625 C 34.125 -8.441406 32.488281 -6.664062 30.78125 -4.9375 C 29.070312 -3.21875 27.347656 -1.640625 25.609375 -0.203125 C 22.960938 1.953125 20.226562 3.382812 17.40625 4.09375 C 14.582031 4.8125 11.863281 4.910156 9.25 4.390625 C 6.632812 3.867188 4.296875 2.8125 2.234375 1.21875 C 0.179688 -0.363281 -1.425781 -2.375 -2.59375 -4.8125 C -3.757812 -7.25 -4.269531 -10 -4.125 -13.0625 C -4.0625 -15.332031 -3.734375 -17.789062 -3.140625 -20.4375 C -2.546875 -23.082031 -1.65625 -25.921875 -0.46875 -28.953125 C 0.332031 -31.046875 1.4375 -33.519531 2.84375 -36.375 C 4.257812 -39.238281 5.875 -42.28125 7.6875 -45.5 C 9.5 -48.71875 11.445312 -51.9375 13.53125 -55.15625 C 15.625 -58.382812 17.785156 -61.425781 20.015625 -64.28125 C 22.242188 -67.144531 24.441406 -69.625 26.609375 -71.71875 C 29.046875 -74.050781 31.5 -75.675781 33.96875 -76.59375 C 36.445312 -77.519531 38.726562 -77.828125 40.8125 -77.515625 C 42.90625 -77.203125 44.625 -76.3125 45.96875 -74.84375 C 47.3125 -73.382812 48.085938 -71.40625 48.296875 -68.90625 C 48.503906 -66.414062 47.953125 -63.484375 46.640625 -60.109375 C 45.335938 -56.734375 43.066406 -52.96875 39.828125 -48.8125 Z M 39.828125 -48.8125 "/></g></g></g><g fill="#fbc5ff" fill-opacity="0.4"><g transform="translate(137.211898, 105.504005)"><g><path d="M 31.46875 -75.46875 C 32.820312 -76.238281 34.148438 -76.441406 35.453125 -76.078125 C 36.765625 -75.710938 37.941406 -74.972656 38.984375 -73.859375 C 40.035156 -72.742188 40.863281 -71.4375 41.46875 -69.9375 C 42.082031 -68.4375 42.390625 -66.921875 42.390625 -65.390625 C 42.390625 -63.859375 41.988281 -62.5 41.1875 -61.3125 C 40.5625 -60.375 39.882812 -59.378906 39.15625 -58.328125 C 40.0625 -58.296875 40.945312 -58.242188 41.8125 -58.171875 C 42.6875 -58.109375 43.539062 -58.039062 44.375 -57.96875 C 45.101562 -57.925781 45.710938 -57.492188 46.203125 -56.671875 C 46.691406 -55.859375 47.019531 -54.875 47.1875 -53.71875 C 47.363281 -52.570312 47.359375 -51.441406 47.171875 -50.328125 C 46.984375 -49.210938 46.566406 -48.296875 45.921875 -47.578125 C 45.273438 -46.867188 44.375 -46.550781 43.21875 -46.625 C 39.25 -46.90625 35.257812 -47.0625 31.25 -47.09375 C 29.375 -44.476562 27.492188 -41.863281 25.609375 -39.25 C 23.734375 -36.632812 21.945312 -34.160156 20.25 -31.828125 C 18.5625 -29.492188 17.039062 -27.40625 15.6875 -25.5625 C 14.707031 -23.332031 14.15625 -21.367188 14.03125 -19.671875 C 13.90625 -17.984375 14.191406 -16.722656 14.890625 -15.890625 C 15.585938 -15.054688 16.675781 -14.8125 18.15625 -15.15625 C 19.644531 -15.507812 21.503906 -16.59375 23.734375 -18.40625 C 25.128906 -19.550781 26.492188 -20.800781 27.828125 -22.15625 C 29.171875 -23.519531 30.382812 -24.773438 31.46875 -25.921875 C 32.550781 -27.078125 33.382812 -27.914062 33.96875 -28.4375 C 34.8125 -29.238281 35.703125 -29.691406 36.640625 -29.796875 C 37.578125 -29.898438 38.457031 -29.734375 39.28125 -29.296875 C 40.101562 -28.859375 40.75 -28.222656 41.21875 -27.390625 C 41.6875 -26.554688 41.882812 -25.585938 41.8125 -24.484375 C 41.738281 -23.390625 41.285156 -22.234375 40.453125 -21.015625 C 39.335938 -19.410156 38.117188 -17.664062 36.796875 -15.78125 C 35.472656 -13.90625 34.050781 -12.023438 32.53125 -10.140625 C 31.019531 -8.253906 29.425781 -6.507812 27.75 -4.90625 C 26.082031 -3.3125 24.34375 -1.972656 22.53125 -0.890625 C 19.425781 0.953125 16.4375 1.941406 13.5625 2.078125 C 10.6875 2.222656 8.117188 1.703125 5.859375 0.515625 C 3.628906 -0.660156 1.875 -2.128906 0.59375 -3.890625 C -0.675781 -5.648438 -1.578125 -7.59375 -2.109375 -9.71875 C -2.648438 -11.84375 -2.882812 -14.035156 -2.8125 -16.296875 C -2.75 -18.566406 -2.484375 -20.800781 -2.015625 -23 C -1.546875 -25.195312 -0.960938 -27.253906 -0.265625 -29.171875 C 0.710938 -31.785156 1.90625 -34.585938 3.3125 -37.578125 C 4.726562 -40.578125 6.289062 -43.59375 8 -46.625 C 6.707031 -46.550781 5.425781 -46.472656 4.15625 -46.390625 C 2.882812 -46.304688 1.601562 -46.207031 0.3125 -46.09375 C -0.414062 -46.0625 -1.050781 -46.332031 -1.59375 -46.90625 C -2.132812 -47.488281 -2.550781 -48.226562 -2.84375 -49.125 C -3.144531 -50.03125 -3.285156 -50.960938 -3.265625 -51.921875 C -3.242188 -52.878906 -3.023438 -53.71875 -2.609375 -54.4375 C -2.191406 -55.15625 -1.546875 -55.597656 -0.671875 -55.765625 C 1.796875 -56.296875 4.34375 -56.742188 6.96875 -57.109375 C 9.601562 -57.472656 12.28125 -57.757812 15 -57.96875 C 16.8125 -60.613281 18.65625 -63.085938 20.53125 -65.390625 C 22.414062 -67.691406 24.28125 -69.710938 26.125 -71.453125 C 27.976562 -73.191406 29.757812 -74.53125 31.46875 -75.46875 Z M 31.46875 -75.46875 "/></g></g></g><g fill="#fbc5ff" fill-opacity="0.4"><g transform="translate(171.186025, 105.504005)"><g><path d="M 16.046875 2.453125 C 13.222656 3.222656 10.53125 3.300781 7.96875 2.6875 C 5.40625 2.082031 3.148438 0.925781 1.203125 -0.78125 C -0.742188 -2.488281 -2.222656 -4.628906 -3.234375 -7.203125 C -4.242188 -9.785156 -4.628906 -12.644531 -4.390625 -15.78125 C -4.285156 -18.425781 -3.757812 -21.109375 -2.8125 -23.828125 C -1.875 -26.546875 -0.582031 -29.132812 1.0625 -31.59375 C 2.71875 -34.050781 4.648438 -36.226562 6.859375 -38.125 C 9.078125 -40.03125 11.523438 -41.488281 14.203125 -42.5 C 16.890625 -43.507812 19.71875 -43.925781 22.6875 -43.75 C 23.875 -43.675781 25.03125 -43.378906 26.15625 -42.859375 C 27.289062 -42.335938 28.289062 -41.664062 29.15625 -40.84375 C 30.03125 -40.03125 30.695312 -39.132812 31.15625 -38.15625 C 32.125 -36.132812 32.515625 -34.164062 32.328125 -32.25 C 32.140625 -30.332031 31.554688 -28.535156 30.578125 -26.859375 C 29.597656 -25.191406 28.359375 -23.695312 26.859375 -22.375 C 25.367188 -21.050781 23.785156 -19.960938 22.109375 -19.109375 C 20.429688 -18.253906 18.816406 -17.695312 17.265625 -17.4375 C 15.722656 -17.175781 14.394531 -17.253906 13.28125 -17.671875 C 13.34375 -16.347656 13.742188 -15.40625 14.484375 -14.84375 C 15.210938 -14.289062 16.1875 -14.132812 17.40625 -14.375 C 18.625 -14.613281 20.007812 -15.132812 21.5625 -15.9375 C 23.113281 -16.738281 24.707031 -17.695312 26.34375 -18.8125 C 27.976562 -19.925781 29.585938 -21.09375 31.171875 -22.3125 C 32.765625 -23.53125 34.222656 -24.695312 35.546875 -25.8125 C 36.867188 -26.9375 37.960938 -27.878906 38.828125 -28.640625 C 39.804688 -29.515625 40.710938 -29.898438 41.546875 -29.796875 C 42.390625 -29.691406 43.085938 -29.316406 43.640625 -28.671875 C 44.203125 -28.023438 44.5625 -27.289062 44.71875 -26.46875 C 44.875 -25.65625 44.773438 -24.96875 44.421875 -24.40625 C 43.347656 -22.738281 42.015625 -20.84375 40.421875 -18.71875 C 38.835938 -16.59375 37.085938 -14.410156 35.171875 -12.171875 C 33.253906 -9.941406 31.222656 -7.816406 29.078125 -5.796875 C 26.941406 -3.773438 24.765625 -2.03125 22.546875 -0.5625 C 20.335938 0.894531 18.171875 1.898438 16.046875 2.453125 Z M 16.046875 2.453125 "/></g></g></g><g fill="#fbc5ff" fill-opacity="0.4"><g transform="translate(210.543756, 105.504005)"><g><path d="M 39.15625 -22.84375 C 36.882812 -20.09375 34.625 -18.085938 32.375 -16.828125 C 30.132812 -15.578125 28.085938 -14.953125 26.234375 -14.953125 C 24.390625 -14.953125 22.910156 -15.460938 21.796875 -16.484375 C 20.679688 -17.515625 20.097656 -18.941406 20.046875 -20.765625 C 19.992188 -22.597656 20.664062 -24.703125 22.0625 -27.078125 C 21.8125 -27.359375 21.375 -27.191406 20.75 -26.578125 C 20.125 -25.972656 19.203125 -24.710938 17.984375 -22.796875 C 17.035156 -21.253906 16.082031 -19.578125 15.125 -17.765625 C 14.164062 -15.953125 13.222656 -14.125 12.296875 -12.28125 C 11.378906 -10.4375 10.503906 -8.691406 9.671875 -7.046875 C 8.835938 -5.410156 8.070312 -4.019531 7.375 -2.875 C 6.675781 -1.757812 5.75 -0.992188 4.59375 -0.578125 C 3.445312 -0.160156 2.210938 -0.03125 0.890625 -0.1875 C -0.429688 -0.34375 -1.710938 -0.722656 -2.953125 -1.328125 C -4.191406 -1.941406 -5.28125 -2.71875 -6.21875 -3.65625 C -7.15625 -4.59375 -7.816406 -5.632812 -8.203125 -6.78125 C -8.585938 -7.9375 -8.554688 -9.109375 -8.109375 -10.296875 C -7.753906 -11.234375 -7.242188 -12.507812 -6.578125 -14.125 C -5.921875 -15.75 -5.164062 -17.570312 -4.3125 -19.59375 C -3.457031 -21.613281 -2.578125 -23.6875 -1.671875 -25.8125 C -0.765625 -27.945312 0.128906 -29.988281 1.015625 -31.9375 C 1.910156 -33.882812 2.703125 -35.613281 3.390625 -37.125 C 4.085938 -38.644531 4.644531 -39.773438 5.0625 -40.515625 C 5.625 -41.554688 6.382812 -42.300781 7.34375 -42.75 C 8.300781 -43.207031 9.3125 -43.425781 10.375 -43.40625 C 11.4375 -43.394531 12.453125 -43.210938 13.421875 -42.859375 C 14.398438 -42.515625 15.203125 -42.070312 15.828125 -41.53125 C 16.460938 -40.988281 16.816406 -40.421875 16.890625 -39.828125 C 16.921875 -39.691406 16.890625 -39.535156 16.796875 -39.359375 C 16.710938 -39.179688 16.632812 -38.898438 16.5625 -38.515625 C 16.394531 -37.890625 16.390625 -37.578125 16.546875 -37.578125 C 16.703125 -37.578125 16.910156 -37.707031 17.171875 -37.96875 C 17.429688 -38.226562 17.613281 -38.394531 17.71875 -38.46875 C 19.769531 -40.28125 21.546875 -41.523438 23.046875 -42.203125 C 24.546875 -42.878906 25.804688 -43.21875 26.828125 -43.21875 C 27.859375 -43.21875 28.722656 -43.097656 29.421875 -42.859375 C 30.785156 -42.410156 31.738281 -41.734375 32.28125 -40.828125 C 32.820312 -39.921875 33.144531 -38.910156 33.25 -37.796875 C 33.351562 -36.679688 33.382812 -35.582031 33.34375 -34.5 C 33.3125 -33.414062 33.375 -32.445312 33.53125 -31.59375 C 33.6875 -30.738281 34.09375 -30.109375 34.75 -29.703125 C 35.414062 -29.304688 36.5 -29.265625 38 -29.578125 C 38.695312 -29.648438 39.296875 -29.351562 39.796875 -28.6875 C 40.304688 -28.03125 40.628906 -27.289062 40.765625 -26.46875 C 40.910156 -25.65625 40.804688 -25.003906 40.453125 -24.515625 C 40.210938 -24.234375 39.988281 -23.953125 39.78125 -23.671875 C 39.570312 -23.398438 39.363281 -23.125 39.15625 -22.84375 Z M 39.15625 -22.84375 "/></g></g></g><g fill="#fbc5ff" fill-opacity="0.4"><g transform="translate(247.758493, 105.504005)"><g><path d="M 16.046875 2.453125 C 13.222656 3.222656 10.53125 3.300781 7.96875 2.6875 C 5.40625 2.082031 3.148438 0.925781 1.203125 -0.78125 C -0.742188 -2.488281 -2.222656 -4.628906 -3.234375 -7.203125 C -4.242188 -9.785156 -4.628906 -12.644531 -4.390625 -15.78125 C -4.285156 -18.425781 -3.757812 -21.109375 -2.8125 -23.828125 C -1.875 -26.546875 -0.582031 -29.132812 1.0625 -31.59375 C 2.71875 -34.050781 4.648438 -36.226562 6.859375 -38.125 C 9.078125 -40.03125 11.523438 -41.488281 14.203125 -42.5 C 16.890625 -43.507812 19.71875 -43.925781 22.6875 -43.75 C 23.875 -43.675781 25.03125 -43.378906 26.15625 -42.859375 C 27.289062 -42.335938 28.289062 -41.664062 29.15625 -40.84375 C 30.03125 -40.03125 30.695312 -39.132812 31.15625 -38.15625 C 32.125 -36.132812 32.515625 -34.164062 32.328125 -32.25 C 32.140625 -30.332031 31.554688 -28.535156 30.578125 -26.859375 C 29.597656 -25.191406 28.359375 -23.695312 26.859375 -22.375 C 25.367188 -21.050781 23.785156 -19.960938 22.109375 -19.109375 C 20.429688 -18.253906 18.816406 -17.695312 17.265625 -17.4375 C 15.722656 -17.175781 14.394531 -17.253906 13.28125 -17.671875 C 13.34375 -16.347656 13.742188 -15.40625 14.484375 -14.84375 C 15.210938 -14.289062 16.1875 -14.132812 17.40625 -14.375 C 18.625 -14.613281 20.007812 -15.132812 21.5625 -15.9375 C 23.113281 -16.738281 24.707031 -17.695312 26.34375 -18.8125 C 27.976562 -19.925781 29.585938 -21.09375 31.171875 -22.3125 C 32.765625 -23.53125 34.222656 -24.695312 35.546875 -25.8125 C 36.867188 -26.9375 37.960938 -27.878906 38.828125 -28.640625 C 39.804688 -29.515625 40.710938 -29.898438 41.546875 -29.796875 C 42.390625 -29.691406 43.085938 -29.316406 43.640625 -28.671875 C 44.203125 -28.023438 44.5625 -27.289062 44.71875 -26.46875 C 44.875 -25.65625 44.773438 -24.96875 44.421875 -24.40625 C 43.347656 -22.738281 42.015625 -20.84375 40.421875 -18.71875 C 38.835938 -16.59375 37.085938 -14.410156 35.171875 -12.171875 C 33.253906 -9.941406 31.222656 -7.816406 29.078125 -5.796875 C 26.941406 -3.773438 24.765625 -2.03125 22.546875 -0.5625 C 20.335938 0.894531 18.171875 1.898438 16.046875 2.453125 Z M 16.046875 2.453125 "/></g></g></g><g fill="#fbc5ff" fill-opacity="0.4"><g transform="translate(287.116201, 105.504005)"><g><path d="M 62.875 -54.25 C 61.3125 -52.195312 59.519531 -50.097656 57.5 -47.953125 C 55.476562 -45.816406 53.394531 -43.71875 51.25 -41.65625 C 49.101562 -39.601562 47.03125 -37.671875 45.03125 -35.859375 C 43.03125 -34.046875 41.28125 -32.457031 39.78125 -31.09375 C 38.695312 -29.28125 37.875 -27.503906 37.3125 -25.765625 C 36.757812 -24.023438 36.488281 -22.492188 36.5 -21.171875 C 36.519531 -19.847656 36.867188 -18.894531 37.546875 -18.3125 C 38.234375 -17.738281 39.289062 -17.675781 40.71875 -18.125 C 42.144531 -18.582031 43.972656 -19.738281 46.203125 -21.59375 C 47.523438 -22.707031 48.863281 -23.925781 50.21875 -25.25 C 51.582031 -26.570312 52.820312 -27.753906 53.9375 -28.796875 C 54.914062 -29.703125 55.835938 -30.101562 56.703125 -30 C 57.578125 -29.894531 58.300781 -29.484375 58.875 -28.765625 C 59.457031 -28.054688 59.804688 -27.203125 59.921875 -26.203125 C 60.046875 -25.210938 59.8125 -24.265625 59.21875 -23.359375 C 58.238281 -21.859375 57.015625 -20.097656 55.546875 -18.078125 C 54.085938 -16.054688 52.453125 -14 50.640625 -11.90625 C 48.835938 -9.820312 46.929688 -7.890625 44.921875 -6.109375 C 42.921875 -4.335938 40.890625 -2.898438 38.828125 -1.796875 C 36.773438 -0.703125 34.753906 -0.15625 32.765625 -0.15625 C 29.804688 -0.15625 27.125 -0.988281 24.71875 -2.65625 C 22.3125 -4.332031 20.535156 -6.546875 19.390625 -9.296875 C 17.367188 -6.648438 15.609375 -4.617188 14.109375 -3.203125 C 12.609375 -1.796875 11.1875 -0.863281 9.84375 -0.40625 C 8.507812 0.0390625 7.039062 0.191406 5.4375 0.046875 C 2.644531 -0.222656 0.429688 -1.054688 -1.203125 -2.453125 C -2.835938 -3.847656 -3.96875 -5.613281 -4.59375 -7.75 C -5.226562 -9.894531 -5.429688 -12.257812 -5.203125 -14.84375 C -4.972656 -17.425781 -4.378906 -20.066406 -3.421875 -22.765625 C -2.460938 -25.460938 -1.207031 -28.070312 0.34375 -30.59375 C 1.894531 -33.125 3.679688 -35.390625 5.703125 -37.390625 C 7.722656 -39.398438 9.898438 -41.003906 12.234375 -42.203125 C 14.566406 -43.410156 17.003906 -44.03125 19.546875 -44.0625 C 22.367188 -44.0625 24.804688 -43.3125 26.859375 -41.8125 C 28.878906 -45.675781 31.015625 -49.40625 33.265625 -53 C 35.515625 -56.59375 37.71875 -59.832031 39.875 -62.71875 C 42.632812 -66.445312 45.363281 -69.410156 48.0625 -71.609375 C 50.757812 -73.804688 53.316406 -75.335938 55.734375 -76.203125 C 58.160156 -77.078125 60.3125 -77.375 62.1875 -77.09375 C 64.070312 -76.8125 65.597656 -76.050781 66.765625 -74.8125 C 67.941406 -73.582031 68.640625 -71.945312 68.859375 -69.90625 C 69.085938 -67.875 68.726562 -65.53125 67.78125 -62.875 C 66.84375 -60.226562 65.207031 -57.351562 62.875 -54.25 Z M 14.421875 -23.515625 C 15.679688 -25.609375 16.457031 -27.113281 16.75 -28.03125 C 17.050781 -28.957031 17.023438 -29.40625 16.671875 -29.375 C 16.328125 -29.34375 15.785156 -28.890625 15.046875 -28.015625 C 14.316406 -27.140625 13.535156 -25.9375 12.703125 -24.40625 C 11.867188 -22.84375 11.257812 -21.535156 10.875 -20.484375 C 10.488281 -19.441406 10.347656 -18.796875 10.453125 -18.546875 C 10.554688 -18.304688 10.9375 -18.566406 11.59375 -19.328125 C 12.257812 -20.097656 13.203125 -21.492188 14.421875 -23.515625 Z M 14.421875 -23.515625 "/></g></g></g><g fill="#fbc5ff" fill-opacity="0.4"><g transform="translate(8.21475, 182.071493)"><g><path d="M 16.890625 2.609375 C 16.191406 4.359375 15.265625 5.601562 14.109375 6.34375 C 12.960938 7.09375 11.707031 7.441406 10.34375 7.390625 C 8.988281 7.335938 7.613281 7 6.21875 6.375 C 4.820312 5.75 3.515625 4.929688 2.296875 3.921875 C 1.078125 2.910156 0.0390625 1.800781 -0.8125 0.59375 C -1.664062 -0.601562 -2.226562 -1.773438 -2.5 -2.921875 C -2.78125 -4.078125 -2.660156 -5.109375 -2.140625 -6.015625 C -1.484375 -7.191406 -0.664062 -8.726562 0.3125 -10.625 C 1.289062 -12.53125 2.363281 -14.640625 3.53125 -16.953125 C 4.695312 -19.273438 5.875 -21.65625 7.0625 -24.09375 C 6.363281 -24.0625 5.65625 -24.019531 4.9375 -23.96875 C 4.226562 -23.914062 3.523438 -23.851562 2.828125 -23.78125 C 1.847656 -23.707031 1.0625 -24.0625 0.46875 -24.84375 C -0.125 -25.632812 -0.515625 -26.628906 -0.703125 -27.828125 C -0.898438 -29.035156 -0.882812 -30.273438 -0.65625 -31.546875 C -0.425781 -32.816406 0.0351562 -33.910156 0.734375 -34.828125 C 1.429688 -35.753906 2.367188 -36.304688 3.546875 -36.484375 C 5.359375 -36.765625 7.335938 -37.035156 9.484375 -37.296875 C 11.628906 -37.554688 13.644531 -37.789062 15.53125 -38 C 16.320312 -39.5 17.015625 -40.753906 17.609375 -41.765625 C 18.203125 -42.773438 18.769531 -43.6875 19.3125 -44.5 C 19.851562 -45.320312 20.410156 -46.191406 20.984375 -47.109375 C 21.554688 -48.035156 22.226562 -49.144531 23 -50.4375 C 20.519531 -50.363281 18.257812 -50.257812 16.21875 -50.125 C 14.1875 -49.988281 12.523438 -49.847656 11.234375 -49.703125 C 10.015625 -49.566406 8.960938 -49.863281 8.078125 -50.59375 C 7.191406 -51.320312 6.46875 -52.347656 5.90625 -53.671875 C 5.34375 -55.003906 4.941406 -56.476562 4.703125 -58.09375 C 4.460938 -59.71875 4.375 -61.382812 4.4375 -63.09375 C 4.507812 -64.800781 4.726562 -66.398438 5.09375 -67.890625 C 5.457031 -69.390625 5.953125 -70.660156 6.578125 -71.703125 C 7.210938 -72.753906 7.984375 -73.4375 8.890625 -73.75 C 10.835938 -74.414062 13.210938 -74.957031 16.015625 -75.375 C 18.828125 -75.789062 21.867188 -76.109375 25.140625 -76.328125 C 28.410156 -76.554688 31.742188 -76.695312 35.140625 -76.75 C 38.546875 -76.800781 41.84375 -76.800781 45.03125 -76.75 C 48.21875 -76.695312 51.109375 -76.59375 53.703125 -76.4375 C 56.296875 -76.28125 58.414062 -76.117188 60.0625 -75.953125 C 63.019531 -75.628906 65.359375 -74.945312 67.078125 -73.90625 C 68.804688 -72.863281 70.035156 -71.570312 70.765625 -70.03125 C 71.503906 -68.5 71.851562 -66.84375 71.8125 -65.0625 C 71.78125 -63.289062 71.476562 -61.5 70.90625 -59.6875 C 70.332031 -57.875 69.597656 -56.148438 68.703125 -54.515625 C 67.816406 -52.878906 66.875 -51.453125 65.875 -50.234375 C 64.882812 -49.015625 63.972656 -48.109375 63.140625 -47.515625 C 62.304688 -46.921875 61.660156 -46.765625 61.203125 -47.046875 C 59.703125 -47.984375 57.425781 -48.703125 54.375 -49.203125 C 51.332031 -49.710938 47.929688 -50.085938 44.171875 -50.328125 C 42.984375 -48.453125 41.925781 -46.613281 41 -44.8125 C 40.082031 -43.019531 39.015625 -41.253906 37.796875 -39.515625 C 41.304688 -39.585938 44.269531 -39.5 46.6875 -39.25 C 49.113281 -39.007812 51.113281 -38.609375 52.6875 -38.046875 C 53.832031 -37.628906 54.625 -36.914062 55.0625 -35.90625 C 55.5 -34.894531 55.65625 -33.757812 55.53125 -32.5 C 55.414062 -31.25 55.101562 -29.992188 54.59375 -28.734375 C 54.09375 -27.484375 53.46875 -26.394531 52.71875 -25.46875 C 51.96875 -24.550781 51.164062 -23.9375 50.3125 -23.625 C 49.457031 -23.3125 48.628906 -23.453125 47.828125 -24.046875 C 47.054688 -24.640625 45.800781 -25.070312 44.0625 -25.34375 C 42.320312 -25.625 40.210938 -25.78125 37.734375 -25.8125 C 35.265625 -25.851562 32.546875 -25.804688 29.578125 -25.671875 C 28.191406 -22.597656 26.804688 -19.546875 25.421875 -16.515625 C 24.046875 -13.484375 22.765625 -10.671875 21.578125 -8.078125 C 20.398438 -5.484375 19.398438 -3.253906 18.578125 -1.390625 C 17.765625 0.472656 17.203125 1.804688 16.890625 2.609375 Z M 16.890625 2.609375 "/></g></g></g><g fill="#fbc5ff" fill-opacity="0.4"><g transform="translate(69.10684, 182.071493)"><g><path d="M 16.046875 2.453125 C 13.222656 3.222656 10.53125 3.300781 7.96875 2.6875 C 5.40625 2.082031 3.148438 0.925781 1.203125 -0.78125 C -0.742188 -2.488281 -2.222656 -4.628906 -3.234375 -7.203125 C -4.242188 -9.785156 -4.628906 -12.644531 -4.390625 -15.78125 C -4.285156 -18.425781 -3.757812 -21.109375 -2.8125 -23.828125 C -1.875 -26.546875 -0.582031 -29.132812 1.0625 -31.59375 C 2.71875 -34.050781 4.648438 -36.226562 6.859375 -38.125 C 9.078125 -40.03125 11.523438 -41.488281 14.203125 -42.5 C 16.890625 -43.507812 19.71875 -43.925781 22.6875 -43.75 C 23.875 -43.675781 25.03125 -43.378906 26.15625 -42.859375 C 27.289062 -42.335938 28.289062 -41.664062 29.15625 -40.84375 C 30.03125 -40.03125 30.695312 -39.132812 31.15625 -38.15625 C 32.125 -36.132812 32.515625 -34.164062 32.328125 -32.25 C 32.140625 -30.332031 31.554688 -28.535156 30.578125 -26.859375 C 29.597656 -25.191406 28.359375 -23.695312 26.859375 -22.375 C 25.367188 -21.050781 23.785156 -19.960938 22.109375 -19.109375 C 20.429688 -18.253906 18.816406 -17.695312 17.265625 -17.4375 C 15.722656 -17.175781 14.394531 -17.253906 13.28125 -17.671875 C 13.34375 -16.347656 13.742188 -15.40625 14.484375 -14.84375 C 15.210938 -14.289062 16.1875 -14.132812 17.40625 -14.375 C 18.625 -14.613281 20.007812 -15.132812 21.5625 -15.9375 C 23.113281 -16.738281 24.707031 -17.695312 26.34375 -18.8125 C 27.976562 -19.925781 29.585938 -21.09375 31.171875 -22.3125 C 32.765625 -23.53125 34.222656 -24.695312 35.546875 -25.8125 C 36.867188 -26.9375 37.960938 -27.878906 38.828125 -28.640625 C 39.804688 -29.515625 40.710938 -29.898438 41.546875 -29.796875 C 42.390625 -29.691406 43.085938 -29.316406 43.640625 -28.671875 C 44.203125 -28.023438 44.5625 -27.289062 44.71875 -26.46875 C 44.875 -25.65625 44.773438 -24.96875 44.421875 -24.40625 C 43.347656 -22.738281 42.015625 -20.84375 40.421875 -18.71875 C 38.835938 -16.59375 37.085938 -14.410156 35.171875 -12.171875 C 33.253906 -9.941406 31.222656 -7.816406 29.078125 -5.796875 C 26.941406 -3.773438 24.765625 -2.03125 22.546875 -0.5625 C 20.335938 0.894531 18.171875 1.898438 16.046875 2.453125 Z M 16.046875 2.453125 "/></g></g></g><g fill="#fbc5ff" fill-opacity="0.4"><g transform="translate(108.464559, 182.071493)"><g><path d="M 16.046875 2.453125 C 13.222656 3.222656 10.53125 3.300781 7.96875 2.6875 C 5.40625 2.082031 3.148438 0.925781 1.203125 -0.78125 C -0.742188 -2.488281 -2.222656 -4.628906 -3.234375 -7.203125 C -4.242188 -9.785156 -4.628906 -12.644531 -4.390625 -15.78125 C -4.285156 -18.425781 -3.757812 -21.109375 -2.8125 -23.828125 C -1.875 -26.546875 -0.582031 -29.132812 1.0625 -31.59375 C 2.71875 -34.050781 4.648438 -36.226562 6.859375 -38.125 C 9.078125 -40.03125 11.523438 -41.488281 14.203125 -42.5 C 16.890625 -43.507812 19.71875 -43.925781 22.6875 -43.75 C 23.875 -43.675781 25.03125 -43.378906 26.15625 -42.859375 C 27.289062 -42.335938 28.289062 -41.664062 29.15625 -40.84375 C 30.03125 -40.03125 30.695312 -39.132812 31.15625 -38.15625 C 32.125 -36.132812 32.515625 -34.164062 32.328125 -32.25 C 32.140625 -30.332031 31.554688 -28.535156 30.578125 -26.859375 C 29.597656 -25.191406 28.359375 -23.695312 26.859375 -22.375 C 25.367188 -21.050781 23.785156 -19.960938 22.109375 -19.109375 C 20.429688 -18.253906 18.816406 -17.695312 17.265625 -17.4375 C 15.722656 -17.175781 14.394531 -17.253906 13.28125 -17.671875 C 13.34375 -16.347656 13.742188 -15.40625 14.484375 -14.84375 C 15.210938 -14.289062 16.1875 -14.132812 17.40625 -14.375 C 18.625 -14.613281 20.007812 -15.132812 21.5625 -15.9375 C 23.113281 -16.738281 24.707031 -17.695312 26.34375 -18.8125 C 27.976562 -19.925781 29.585938 -21.09375 31.171875 -22.3125 C 32.765625 -23.53125 34.222656 -24.695312 35.546875 -25.8125 C 36.867188 -26.9375 37.960938 -27.878906 38.828125 -28.640625 C 39.804688 -29.515625 40.710938 -29.898438 41.546875 -29.796875 C 42.390625 -29.691406 43.085938 -29.316406 43.640625 -28.671875 C 44.203125 -28.023438 44.5625 -27.289062 44.71875 -26.46875 C 44.875 -25.65625 44.773438 -24.96875 44.421875 -24.40625 C 43.347656 -22.738281 42.015625 -20.84375 40.421875 -18.71875 C 38.835938 -16.59375 37.085938 -14.410156 35.171875 -12.171875 C 33.253906 -9.941406 31.222656 -7.816406 29.078125 -5.796875 C 26.941406 -3.773438 24.765625 -2.03125 22.546875 -0.5625 C 20.335938 0.894531 18.171875 1.898438 16.046875 2.453125 Z M 16.046875 2.453125 "/></g></g></g><g fill="#fbc5ff" fill-opacity="0.4"><g transform="translate(147.822279, 182.071493)"><g><path d="M 39.828125 -48.8125 C 38.015625 -46.519531 36.046875 -44.171875 33.921875 -41.765625 C 31.796875 -39.359375 29.671875 -37.046875 27.546875 -34.828125 C 25.421875 -32.617188 23.429688 -30.617188 21.578125 -28.828125 C 19.734375 -27.035156 18.171875 -25.582031 16.890625 -24.46875 C 15.835938 -21.882812 15.328125 -19.816406 15.359375 -18.265625 C 15.398438 -16.710938 15.835938 -15.648438 16.671875 -15.078125 C 17.503906 -14.503906 18.585938 -14.359375 19.921875 -14.640625 C 21.273438 -14.910156 22.742188 -15.59375 24.328125 -16.6875 C 25.910156 -17.789062 27.503906 -19.070312 29.109375 -20.53125 C 30.710938 -22 32.21875 -23.445312 33.625 -24.875 C 35.039062 -26.300781 36.253906 -27.503906 37.265625 -28.484375 C 38.171875 -29.316406 39.101562 -29.769531 40.0625 -29.84375 C 41.019531 -29.914062 41.890625 -29.695312 42.671875 -29.1875 C 43.460938 -28.6875 44.070312 -27.960938 44.5 -27.015625 C 44.9375 -26.078125 45.085938 -25.003906 44.953125 -23.796875 C 44.816406 -22.597656 44.296875 -21.335938 43.390625 -20.015625 C 42.484375 -18.691406 41.363281 -17.191406 40.03125 -15.515625 C 38.707031 -13.847656 37.257812 -12.097656 35.6875 -10.265625 C 34.125 -8.441406 32.488281 -6.664062 30.78125 -4.9375 C 29.070312 -3.21875 27.347656 -1.640625 25.609375 -0.203125 C 22.960938 1.953125 20.226562 3.382812 17.40625 4.09375 C 14.582031 4.8125 11.863281 4.910156 9.25 4.390625 C 6.632812 3.867188 4.296875 2.8125 2.234375 1.21875 C 0.179688 -0.363281 -1.425781 -2.375 -2.59375 -4.8125 C -3.757812 -7.25 -4.269531 -10 -4.125 -13.0625 C -4.0625 -15.332031 -3.734375 -17.789062 -3.140625 -20.4375 C -2.546875 -23.082031 -1.65625 -25.921875 -0.46875 -28.953125 C 0.332031 -31.046875 1.4375 -33.519531 2.84375 -36.375 C 4.257812 -39.238281 5.875 -42.28125 7.6875 -45.5 C 9.5 -48.71875 11.445312 -51.9375 13.53125 -55.15625 C 15.625 -58.382812 17.785156 -61.425781 20.015625 -64.28125 C 22.242188 -67.144531 24.441406 -69.625 26.609375 -71.71875 C 29.046875 -74.050781 31.5 -75.675781 33.96875 -76.59375 C 36.445312 -77.519531 38.726562 -77.828125 40.8125 -77.515625 C 42.90625 -77.203125 44.625 -76.3125 45.96875 -74.84375 C 47.3125 -73.382812 48.085938 -71.40625 48.296875 -68.90625 C 48.503906 -66.414062 47.953125 -63.484375 46.640625 -60.109375 C 45.335938 -56.734375 43.066406 -52.96875 39.828125 -48.8125 Z M 39.828125 -48.8125 "/></g></g></g><g fill="#fbc5ff" fill-opacity="0.4"><g transform="translate(184.932479, 182.071493)"><g><path d="M 22 -22.265625 C 23.851562 -22.023438 25.394531 -21.425781 26.625 -20.46875 C 27.863281 -19.507812 28.863281 -18.398438 29.625 -17.140625 C 30.394531 -15.890625 30.9375 -14.695312 31.25 -13.5625 C 31.570312 -12.425781 31.695312 -11.546875 31.625 -10.921875 C 31.375 -8.140625 30.640625 -5.734375 29.421875 -3.703125 C 28.203125 -1.679688 26.648438 -0.0351562 24.765625 1.234375 C 22.890625 2.503906 20.84375 3.425781 18.625 4 C 16.414062 4.570312 14.1875 4.820312 11.9375 4.75 C 9.695312 4.6875 7.617188 4.320312 5.703125 3.65625 C 4.515625 3.238281 3.40625 2.53125 2.375 1.53125 C 1.351562 0.539062 0.546875 -0.613281 -0.046875 -1.9375 C -0.640625 -3.257812 -0.910156 -4.675781 -0.859375 -6.1875 C -0.804688 -7.707031 -0.3125 -9.21875 0.625 -10.71875 C 1.5 -12.113281 2.507812 -13.097656 3.65625 -13.671875 C 4.8125 -14.242188 5.976562 -14.585938 7.15625 -14.703125 C 8.34375 -14.828125 9.40625 -14.90625 10.34375 -14.9375 C 11.289062 -14.976562 12 -15.113281 12.46875 -15.34375 C 12.9375 -15.570312 13.03125 -16.085938 12.75 -16.890625 C 12.613281 -17.265625 12.097656 -17.722656 11.203125 -18.265625 C 10.316406 -18.804688 9.289062 -19.390625 8.125 -20.015625 C 6.957031 -20.640625 5.847656 -21.226562 4.796875 -21.78125 C 3.753906 -22.34375 3.023438 -22.816406 2.609375 -23.203125 C 1.078125 -24.566406 0.0507812 -26.210938 -0.46875 -28.140625 C -0.988281 -30.078125 -1.046875 -32.125 -0.640625 -34.28125 C -0.242188 -36.445312 0.5625 -38.566406 1.78125 -40.640625 C 3 -42.710938 4.566406 -44.578125 6.484375 -46.234375 C 8.398438 -47.890625 10.617188 -49.175781 13.140625 -50.09375 C 15.671875 -51.019531 18.4375 -51.394531 21.4375 -51.21875 C 25.050781 -51.007812 28.007812 -50.3125 30.3125 -49.125 C 32.613281 -47.945312 34.347656 -46.476562 35.515625 -44.71875 C 36.679688 -42.957031 37.367188 -41.09375 37.578125 -39.125 C 37.785156 -37.15625 37.582031 -35.28125 36.96875 -33.5 C 36.363281 -31.726562 35.453125 -30.234375 34.234375 -29.015625 C 33.191406 -28.003906 31.882812 -27.257812 30.3125 -26.78125 C 28.75 -26.3125 27.140625 -26.101562 25.484375 -26.15625 C 23.828125 -26.207031 22.328125 -26.519531 20.984375 -27.09375 C 19.640625 -27.675781 18.671875 -28.488281 18.078125 -29.53125 C 17.347656 -29.082031 16.84375 -28.394531 16.5625 -27.46875 C 16.289062 -26.539062 16.484375 -25.625 17.140625 -24.71875 C 17.421875 -24.375 17.941406 -23.929688 18.703125 -23.390625 C 19.472656 -22.847656 20.570312 -22.472656 22 -22.265625 Z M 22 -22.265625 "/></g></g></g><g clip-path="url(#5ec200accc)"><g fill="#fbc5ff" fill-opacity="1"><g transform="translate(3.483735, 100.772991)"><g><path d="M 16.890625 2.609375 C 16.191406 4.359375 15.265625 5.601562 14.109375 6.34375 C 12.960938 7.09375 11.707031 7.441406 10.34375 7.390625 C 8.988281 7.335938 7.613281 7 6.21875 6.375 C 4.820312 5.75 3.515625 4.929688 2.296875 3.921875 C 1.078125 2.910156 0.0390625 1.800781 -0.8125 0.59375 C -1.664062 -0.601562 -2.226562 -1.773438 -2.5 -2.921875 C -2.78125 -4.078125 -2.660156 -5.109375 -2.140625 -6.015625 C -1.484375 -7.191406 -0.664062 -8.726562 0.3125 -10.625 C 1.289062 -12.53125 2.363281 -14.640625 3.53125 -16.953125 C 4.695312 -19.273438 5.875 -21.65625 7.0625 -24.09375 C 6.363281 -24.0625 5.65625 -24.019531 4.9375 -23.96875 C 4.226562 -23.914062 3.523438 -23.851562 2.828125 -23.78125 C 1.847656 -23.707031 1.0625 -24.0625 0.46875 -24.84375 C -0.125 -25.632812 -0.515625 -26.628906 -0.703125 -27.828125 C -0.898438 -29.035156 -0.882812 -30.273438 -0.65625 -31.546875 C -0.425781 -32.816406 0.0351562 -33.910156 0.734375 -34.828125 C 1.429688 -35.753906 2.367188 -36.304688 3.546875 -36.484375 C 5.359375 -36.765625 7.335938 -37.035156 9.484375 -37.296875 C 11.628906 -37.554688 13.644531 -37.789062 15.53125 -38 C 16.320312 -39.5 17.015625 -40.753906 17.609375 -41.765625 C 18.203125 -42.773438 18.769531 -43.6875 19.3125 -44.5 C 19.851562 -45.320312 20.410156 -46.191406 20.984375 -47.109375 C 21.554688 -48.035156 22.226562 -49.144531 23 -50.4375 C 20.519531 -50.363281 18.257812 -50.257812 16.21875 -50.125 C 14.1875 -49.988281 12.523438 -49.847656 11.234375 -49.703125 C 10.015625 -49.566406 8.960938 -49.863281 8.078125 -50.59375 C 7.191406 -51.320312 6.46875 -52.347656 5.90625 -53.671875 C 5.34375 -55.003906 4.941406 -56.476562 4.703125 -58.09375 C 4.460938 -59.71875 4.375 -61.382812 4.4375 -63.09375 C 4.507812 -64.800781 4.726562 -66.398438 5.09375 -67.890625 C 5.457031 -69.390625 5.953125 -70.660156 6.578125 -71.703125 C 7.210938 -72.753906 7.984375 -73.4375 8.890625 -73.75 C 10.835938 -74.414062 13.210938 -74.957031 16.015625 -75.375 C 18.828125 -75.789062 21.867188 -76.109375 25.140625 -76.328125 C 28.410156 -76.554688 31.742188 -76.695312 35.140625 -76.75 C 38.546875 -76.800781 41.84375 -76.800781 45.03125 -76.75 C 48.21875 -76.695312 51.109375 -76.59375 53.703125 -76.4375 C 56.296875 -76.28125 58.414062 -76.117188 60.0625 -75.953125 C 63.019531 -75.628906 65.359375 -74.945312 67.078125 -73.90625 C 68.804688 -72.863281 70.035156 -71.570312 70.765625 -70.03125 C 71.503906 -68.5 71.851562 -66.84375 71.8125 -65.0625 C 71.78125 -63.289062 71.476562 -61.5 70.90625 -59.6875 C 70.332031 -57.875 69.597656 -56.148438 68.703125 -54.515625 C 67.816406 -52.878906 66.875 -51.453125 65.875 -50.234375 C 64.882812 -49.015625 63.972656 -48.109375 63.140625 -47.515625 C 62.304688 -46.921875 61.660156 -46.765625 61.203125 -47.046875 C 59.703125 -47.984375 57.425781 -48.703125 54.375 -49.203125 C 51.332031 -49.710938 47.929688 -50.085938 44.171875 -50.328125 C 42.984375 -48.453125 41.925781 -46.613281 41 -44.8125 C 40.082031 -43.019531 39.015625 -41.253906 37.796875 -39.515625 C 41.304688 -39.585938 44.269531 -39.5 46.6875 -39.25 C 49.113281 -39.007812 51.113281 -38.609375 52.6875 -38.046875 C 53.832031 -37.628906 54.625 -36.914062 55.0625 -35.90625 C 55.5 -34.894531 55.65625 -33.757812 55.53125 -32.5 C 55.414062 -31.25 55.101562 -29.992188 54.59375 -28.734375 C 54.09375 -27.484375 53.46875 -26.394531 52.71875 -25.46875 C 51.96875 -24.550781 51.164062 -23.9375 50.3125 -23.625 C 49.457031 -23.3125 48.628906 -23.453125 47.828125 -24.046875 C 47.054688 -24.640625 45.800781 -25.070312 44.0625 -25.34375 C 42.320312 -25.625 40.210938 -25.78125 37.734375 -25.8125 C 35.265625 -25.851562 32.546875 -25.804688 29.578125 -25.671875 C 28.191406 -22.597656 26.804688 -19.546875 25.421875 -16.515625 C 24.046875 -13.484375 22.765625 -10.671875 21.578125 -8.078125 C 20.398438 -5.484375 19.398438 -3.253906 18.578125 -1.390625 C 17.765625 0.472656 17.203125 1.804688 16.890625 2.609375 Z M 16.890625 2.609375 "/></g></g></g></g><g fill="#fbc5ff" fill-opacity="1"><g transform="translate(64.375825, 100.772991)"><g><path d="M 27.859375 -47.40625 C 26.847656 -46.320312 25.671875 -45.613281 24.328125 -45.28125 C 22.984375 -44.957031 21.640625 -44.96875 20.296875 -45.3125 C 18.960938 -45.664062 17.753906 -46.3125 16.671875 -47.25 C 15.585938 -48.1875 14.8125 -49.378906 14.34375 -50.828125 C 13.875 -52.273438 13.847656 -53.921875 14.265625 -55.765625 C 14.472656 -56.640625 14.847656 -57.753906 15.390625 -59.109375 C 15.929688 -60.472656 16.566406 -61.867188 17.296875 -63.296875 C 18.035156 -64.722656 18.796875 -65.992188 19.578125 -67.109375 C 20.359375 -68.222656 21.113281 -68.972656 21.84375 -69.359375 C 24.394531 -70.722656 26.972656 -70.863281 29.578125 -69.78125 C 31.078125 -69.113281 32.394531 -68.265625 33.53125 -67.234375 C 34.664062 -66.210938 35.234375 -64.953125 35.234375 -63.453125 C 35.234375 -62.304688 35.015625 -61.007812 34.578125 -59.5625 C 34.140625 -58.113281 33.5625 -56.628906 32.84375 -55.109375 C 32.132812 -53.597656 31.351562 -52.171875 30.5 -50.828125 C 29.644531 -49.484375 28.765625 -48.34375 27.859375 -47.40625 Z M 6.484375 -39.984375 C 7.597656 -40.921875 8.882812 -41.476562 10.34375 -41.65625 C 11.8125 -41.832031 13.257812 -41.703125 14.6875 -41.265625 C 16.113281 -40.828125 17.375 -40.140625 18.46875 -39.203125 C 19.570312 -38.265625 20.34375 -37.148438 20.78125 -35.859375 C 21.21875 -34.566406 21.140625 -33.15625 20.546875 -31.625 C 19.671875 -29.289062 18.84375 -27.140625 18.0625 -25.171875 C 17.28125 -23.203125 16.800781 -21.660156 16.625 -20.546875 C 16.375 -18.898438 16.414062 -17.804688 16.75 -17.265625 C 17.082031 -16.734375 17.628906 -16.597656 18.390625 -16.859375 C 19.160156 -17.117188 20.039062 -17.65625 21.03125 -18.46875 C 22.03125 -19.289062 23.066406 -20.242188 24.140625 -21.328125 C 25.222656 -22.410156 26.253906 -23.488281 27.234375 -24.5625 C 28.210938 -25.644531 29.046875 -26.585938 29.734375 -27.390625 C 30.429688 -28.191406 30.90625 -28.710938 31.15625 -28.953125 C 32.019531 -29.796875 32.894531 -30.160156 33.78125 -30.046875 C 34.675781 -29.941406 35.425781 -29.53125 36.03125 -28.8125 C 36.644531 -28.101562 36.984375 -27.203125 37.046875 -26.109375 C 37.117188 -25.015625 36.773438 -23.875 36.015625 -22.6875 C 35.210938 -21.425781 34.28125 -19.941406 33.21875 -18.234375 C 32.15625 -16.535156 30.976562 -14.757812 29.6875 -12.90625 C 28.394531 -11.0625 27.007812 -9.285156 25.53125 -7.578125 C 24.050781 -5.867188 22.472656 -4.40625 20.796875 -3.1875 C 17.734375 -0.957031 14.660156 0.144531 11.578125 0.125 C 8.492188 0.113281 5.765625 -0.710938 3.390625 -2.359375 C 1.722656 -3.535156 0.296875 -5.039062 -0.890625 -6.875 C -2.078125 -8.707031 -2.882812 -10.769531 -3.3125 -13.0625 C -3.75 -15.363281 -3.722656 -17.804688 -3.234375 -20.390625 C -2.890625 -22.203125 -2.382812 -24.070312 -1.71875 -26 C -1.0625 -27.9375 -0.289062 -29.8125 0.59375 -31.625 C 1.488281 -33.4375 2.429688 -35.0625 3.421875 -36.5 C 4.410156 -37.945312 5.429688 -39.109375 6.484375 -39.984375 Z M 6.484375 -39.984375 "/></g></g></g><g fill="#fbc5ff" fill-opacity="1"><g transform="translate(95.370683, 100.772991)"><g><path d="M 39.828125 -48.8125 C 38.015625 -46.519531 36.046875 -44.171875 33.921875 -41.765625 C 31.796875 -39.359375 29.671875 -37.046875 27.546875 -34.828125 C 25.421875 -32.617188 23.429688 -30.617188 21.578125 -28.828125 C 19.734375 -27.035156 18.171875 -25.582031 16.890625 -24.46875 C 15.835938 -21.882812 15.328125 -19.816406 15.359375 -18.265625 C 15.398438 -16.710938 15.835938 -15.648438 16.671875 -15.078125 C 17.503906 -14.503906 18.585938 -14.359375 19.921875 -14.640625 C 21.273438 -14.910156 22.742188 -15.59375 24.328125 -16.6875 C 25.910156 -17.789062 27.503906 -19.070312 29.109375 -20.53125 C 30.710938 -22 32.21875 -23.445312 33.625 -24.875 C 35.039062 -26.300781 36.253906 -27.503906 37.265625 -28.484375 C 38.171875 -29.316406 39.101562 -29.769531 40.0625 -29.84375 C 41.019531 -29.914062 41.890625 -29.695312 42.671875 -29.1875 C 43.460938 -28.6875 44.070312 -27.960938 44.5 -27.015625 C 44.9375 -26.078125 45.085938 -25.003906 44.953125 -23.796875 C 44.816406 -22.597656 44.296875 -21.335938 43.390625 -20.015625 C 42.484375 -18.691406 41.363281 -17.191406 40.03125 -15.515625 C 38.707031 -13.847656 37.257812 -12.097656 35.6875 -10.265625 C 34.125 -8.441406 32.488281 -6.664062 30.78125 -4.9375 C 29.070312 -3.21875 27.347656 -1.640625 25.609375 -0.203125 C 22.960938 1.953125 20.226562 3.382812 17.40625 4.09375 C 14.582031 4.8125 11.863281 4.910156 9.25 4.390625 C 6.632812 3.867188 4.296875 2.8125 2.234375 1.21875 C 0.179688 -0.363281 -1.425781 -2.375 -2.59375 -4.8125 C -3.757812 -7.25 -4.269531 -10 -4.125 -13.0625 C -4.0625 -15.332031 -3.734375 -17.789062 -3.140625 -20.4375 C -2.546875 -23.082031 -1.65625 -25.921875 -0.46875 -28.953125 C 0.332031 -31.046875 1.4375 -33.519531 2.84375 -36.375 C 4.257812 -39.238281 5.875 -42.28125 7.6875 -45.5 C 9.5 -48.71875 11.445312 -51.9375 13.53125 -55.15625 C 15.625 -58.382812 17.785156 -61.425781 20.015625 -64.28125 C 22.242188 -67.144531 24.441406 -69.625 26.609375 -71.71875 C 29.046875 -74.050781 31.5 -75.675781 33.96875 -76.59375 C 36.445312 -77.519531 38.726562 -77.828125 40.8125 -77.515625 C 42.90625 -77.203125 44.625 -76.3125 45.96875 -74.84375 C 47.3125 -73.382812 48.085938 -71.40625 48.296875 -68.90625 C 48.503906 -66.414062 47.953125 -63.484375 46.640625 -60.109375 C 45.335938 -56.734375 43.066406 -52.96875 39.828125 -48.8125 Z M 39.828125 -48.8125 "/></g></g></g><g fill="#fbc5ff" fill-opacity="1"><g transform="translate(132.480883, 100.772991)"><g><path d="M 31.46875 -75.46875 C 32.820312 -76.238281 34.148438 -76.441406 35.453125 -76.078125 C 36.765625 -75.710938 37.941406 -74.972656 38.984375 -73.859375 C 40.035156 -72.742188 40.863281 -71.4375 41.46875 -69.9375 C 42.082031 -68.4375 42.390625 -66.921875 42.390625 -65.390625 C 42.390625 -63.859375 41.988281 -62.5 41.1875 -61.3125 C 40.5625 -60.375 39.882812 -59.378906 39.15625 -58.328125 C 40.0625 -58.296875 40.945312 -58.242188 41.8125 -58.171875 C 42.6875 -58.109375 43.539062 -58.039062 44.375 -57.96875 C 45.101562 -57.925781 45.710938 -57.492188 46.203125 -56.671875 C 46.691406 -55.859375 47.019531 -54.875 47.1875 -53.71875 C 47.363281 -52.570312 47.359375 -51.441406 47.171875 -50.328125 C 46.984375 -49.210938 46.566406 -48.296875 45.921875 -47.578125 C 45.273438 -46.867188 44.375 -46.550781 43.21875 -46.625 C 39.25 -46.90625 35.257812 -47.0625 31.25 -47.09375 C 29.375 -44.476562 27.492188 -41.863281 25.609375 -39.25 C 23.734375 -36.632812 21.945312 -34.160156 20.25 -31.828125 C 18.5625 -29.492188 17.039062 -27.40625 15.6875 -25.5625 C 14.707031 -23.332031 14.15625 -21.367188 14.03125 -19.671875 C 13.90625 -17.984375 14.191406 -16.722656 14.890625 -15.890625 C 15.585938 -15.054688 16.675781 -14.8125 18.15625 -15.15625 C 19.644531 -15.507812 21.503906 -16.59375 23.734375 -18.40625 C 25.128906 -19.550781 26.492188 -20.800781 27.828125 -22.15625 C 29.171875 -23.519531 30.382812 -24.773438 31.46875 -25.921875 C 32.550781 -27.078125 33.382812 -27.914062 33.96875 -28.4375 C 34.8125 -29.238281 35.703125 -29.691406 36.640625 -29.796875 C 37.578125 -29.898438 38.457031 -29.734375 39.28125 -29.296875 C 40.101562 -28.859375 40.75 -28.222656 41.21875 -27.390625 C 41.6875 -26.554688 41.882812 -25.585938 41.8125 -24.484375 C 41.738281 -23.390625 41.285156 -22.234375 40.453125 -21.015625 C 39.335938 -19.410156 38.117188 -17.664062 36.796875 -15.78125 C 35.472656 -13.90625 34.050781 -12.023438 32.53125 -10.140625 C 31.019531 -8.253906 29.425781 -6.507812 27.75 -4.90625 C 26.082031 -3.3125 24.34375 -1.972656 22.53125 -0.890625 C 19.425781 0.953125 16.4375 1.941406 13.5625 2.078125 C 10.6875 2.222656 8.117188 1.703125 5.859375 0.515625 C 3.628906 -0.660156 1.875 -2.128906 0.59375 -3.890625 C -0.675781 -5.648438 -1.578125 -7.59375 -2.109375 -9.71875 C -2.648438 -11.84375 -2.882812 -14.035156 -2.8125 -16.296875 C -2.75 -18.566406 -2.484375 -20.800781 -2.015625 -23 C -1.546875 -25.195312 -0.960938 -27.253906 -0.265625 -29.171875 C 0.710938 -31.785156 1.90625 -34.585938 3.3125 -37.578125 C 4.726562 -40.578125 6.289062 -43.59375 8 -46.625 C 6.707031 -46.550781 5.425781 -46.472656 4.15625 -46.390625 C 2.882812 -46.304688 1.601562 -46.207031 0.3125 -46.09375 C -0.414062 -46.0625 -1.050781 -46.332031 -1.59375 -46.90625 C -2.132812 -47.488281 -2.550781 -48.226562 -2.84375 -49.125 C -3.144531 -50.03125 -3.285156 -50.960938 -3.265625 -51.921875 C -3.242188 -52.878906 -3.023438 -53.71875 -2.609375 -54.4375 C -2.191406 -55.15625 -1.546875 -55.597656 -0.671875 -55.765625 C 1.796875 -56.296875 4.34375 -56.742188 6.96875 -57.109375 C 9.601562 -57.472656 12.28125 -57.757812 15 -57.96875 C 16.8125 -60.613281 18.65625 -63.085938 20.53125 -65.390625 C 22.414062 -67.691406 24.28125 -69.710938 26.125 -71.453125 C 27.976562 -73.191406 29.757812 -74.53125 31.46875 -75.46875 Z M 31.46875 -75.46875 "/></g></g></g><g fill="#fbc5ff" fill-opacity="1"><g transform="translate(166.45501, 100.772991)"><g><path d="M 16.046875 2.453125 C 13.222656 3.222656 10.53125 3.300781 7.96875 2.6875 C 5.40625 2.082031 3.148438 0.925781 1.203125 -0.78125 C -0.742188 -2.488281 -2.222656 -4.628906 -3.234375 -7.203125 C -4.242188 -9.785156 -4.628906 -12.644531 -4.390625 -15.78125 C -4.285156 -18.425781 -3.757812 -21.109375 -2.8125 -23.828125 C -1.875 -26.546875 -0.582031 -29.132812 1.0625 -31.59375 C 2.71875 -34.050781 4.648438 -36.226562 6.859375 -38.125 C 9.078125 -40.03125 11.523438 -41.488281 14.203125 -42.5 C 16.890625 -43.507812 19.71875 -43.925781 22.6875 -43.75 C 23.875 -43.675781 25.03125 -43.378906 26.15625 -42.859375 C 27.289062 -42.335938 28.289062 -41.664062 29.15625 -40.84375 C 30.03125 -40.03125 30.695312 -39.132812 31.15625 -38.15625 C 32.125 -36.132812 32.515625 -34.164062 32.328125 -32.25 C 32.140625 -30.332031 31.554688 -28.535156 30.578125 -26.859375 C 29.597656 -25.191406 28.359375 -23.695312 26.859375 -22.375 C 25.367188 -21.050781 23.785156 -19.960938 22.109375 -19.109375 C 20.429688 -18.253906 18.816406 -17.695312 17.265625 -17.4375 C 15.722656 -17.175781 14.394531 -17.253906 13.28125 -17.671875 C 13.34375 -16.347656 13.742188 -15.40625 14.484375 -14.84375 C 15.210938 -14.289062 16.1875 -14.132812 17.40625 -14.375 C 18.625 -14.613281 20.007812 -15.132812 21.5625 -15.9375 C 23.113281 -16.738281 24.707031 -17.695312 26.34375 -18.8125 C 27.976562 -19.925781 29.585938 -21.09375 31.171875 -22.3125 C 32.765625 -23.53125 34.222656 -24.695312 35.546875 -25.8125 C 36.867188 -26.9375 37.960938 -27.878906 38.828125 -28.640625 C 39.804688 -29.515625 40.710938 -29.898438 41.546875 -29.796875 C 42.390625 -29.691406 43.085938 -29.316406 43.640625 -28.671875 C 44.203125 -28.023438 44.5625 -27.289062 44.71875 -26.46875 C 44.875 -25.65625 44.773438 -24.96875 44.421875 -24.40625 C 43.347656 -22.738281 42.015625 -20.84375 40.421875 -18.71875 C 38.835938 -16.59375 37.085938 -14.410156 35.171875 -12.171875 C 33.253906 -9.941406 31.222656 -7.816406 29.078125 -5.796875 C 26.941406 -3.773438 24.765625 -2.03125 22.546875 -0.5625 C 20.335938 0.894531 18.171875 1.898438 16.046875 2.453125 Z M 16.046875 2.453125 "/></g></g></g><g fill="#fbc5ff" fill-opacity="1"><g transform="translate(205.812741, 100.772991)"><g><path d="M 39.15625 -22.84375 C 36.882812 -20.09375 34.625 -18.085938 32.375 -16.828125 C 30.132812 -15.578125 28.085938 -14.953125 26.234375 -14.953125 C 24.390625 -14.953125 22.910156 -15.460938 21.796875 -16.484375 C 20.679688 -17.515625 20.097656 -18.941406 20.046875 -20.765625 C 19.992188 -22.597656 20.664062 -24.703125 22.0625 -27.078125 C 21.8125 -27.359375 21.375 -27.191406 20.75 -26.578125 C 20.125 -25.972656 19.203125 -24.710938 17.984375 -22.796875 C 17.035156 -21.253906 16.082031 -19.578125 15.125 -17.765625 C 14.164062 -15.953125 13.222656 -14.125 12.296875 -12.28125 C 11.378906 -10.4375 10.503906 -8.691406 9.671875 -7.046875 C 8.835938 -5.410156 8.070312 -4.019531 7.375 -2.875 C 6.675781 -1.757812 5.75 -0.992188 4.59375 -0.578125 C 3.445312 -0.160156 2.210938 -0.03125 0.890625 -0.1875 C -0.429688 -0.34375 -1.710938 -0.722656 -2.953125 -1.328125 C -4.191406 -1.941406 -5.28125 -2.71875 -6.21875 -3.65625 C -7.15625 -4.59375 -7.816406 -5.632812 -8.203125 -6.78125 C -8.585938 -7.9375 -8.554688 -9.109375 -8.109375 -10.296875 C -7.753906 -11.234375 -7.242188 -12.507812 -6.578125 -14.125 C -5.921875 -15.75 -5.164062 -17.570312 -4.3125 -19.59375 C -3.457031 -21.613281 -2.578125 -23.6875 -1.671875 -25.8125 C -0.765625 -27.945312 0.128906 -29.988281 1.015625 -31.9375 C 1.910156 -33.882812 2.703125 -35.613281 3.390625 -37.125 C 4.085938 -38.644531 4.644531 -39.773438 5.0625 -40.515625 C 5.625 -41.554688 6.382812 -42.300781 7.34375 -42.75 C 8.300781 -43.207031 9.3125 -43.425781 10.375 -43.40625 C 11.4375 -43.394531 12.453125 -43.210938 13.421875 -42.859375 C 14.398438 -42.515625 15.203125 -42.070312 15.828125 -41.53125 C 16.460938 -40.988281 16.816406 -40.421875 16.890625 -39.828125 C 16.921875 -39.691406 16.890625 -39.535156 16.796875 -39.359375 C 16.710938 -39.179688 16.632812 -38.898438 16.5625 -38.515625 C 16.394531 -37.890625 16.390625 -37.578125 16.546875 -37.578125 C 16.703125 -37.578125 16.910156 -37.707031 17.171875 -37.96875 C 17.429688 -38.226562 17.613281 -38.394531 17.71875 -38.46875 C 19.769531 -40.28125 21.546875 -41.523438 23.046875 -42.203125 C 24.546875 -42.878906 25.804688 -43.21875 26.828125 -43.21875 C 27.859375 -43.21875 28.722656 -43.097656 29.421875 -42.859375 C 30.785156 -42.410156 31.738281 -41.734375 32.28125 -40.828125 C 32.820312 -39.921875 33.144531 -38.910156 33.25 -37.796875 C 33.351562 -36.679688 33.382812 -35.582031 33.34375 -34.5 C 33.3125 -33.414062 33.375 -32.445312 33.53125 -31.59375 C 33.6875 -30.738281 34.09375 -30.109375 34.75 -29.703125 C 35.414062 -29.304688 36.5 -29.265625 38 -29.578125 C 38.695312 -29.648438 39.296875 -29.351562 39.796875 -28.6875 C 40.304688 -28.03125 40.628906 -27.289062 40.765625 -26.46875 C 40.910156 -25.65625 40.804688 -25.003906 40.453125 -24.515625 C 40.210938 -24.234375 39.988281 -23.953125 39.78125 -23.671875 C 39.570312 -23.398438 39.363281 -23.125 39.15625 -22.84375 Z M 39.15625 -22.84375 "/></g></g></g><g fill="#fbc5ff" fill-opacity="1"><g transform="translate(243.027478, 100.772991)"><g><path d="M 16.046875 2.453125 C 13.222656 3.222656 10.53125 3.300781 7.96875 2.6875 C 5.40625 2.082031 3.148438 0.925781 1.203125 -0.78125 C -0.742188 -2.488281 -2.222656 -4.628906 -3.234375 -7.203125 C -4.242188 -9.785156 -4.628906 -12.644531 -4.390625 -15.78125 C -4.285156 -18.425781 -3.757812 -21.109375 -2.8125 -23.828125 C -1.875 -26.546875 -0.582031 -29.132812 1.0625 -31.59375 C 2.71875 -34.050781 4.648438 -36.226562 6.859375 -38.125 C 9.078125 -40.03125 11.523438 -41.488281 14.203125 -42.5 C 16.890625 -43.507812 19.71875 -43.925781 22.6875 -43.75 C 23.875 -43.675781 25.03125 -43.378906 26.15625 -42.859375 C 27.289062 -42.335938 28.289062 -41.664062 29.15625 -40.84375 C 30.03125 -40.03125 30.695312 -39.132812 31.15625 -38.15625 C 32.125 -36.132812 32.515625 -34.164062 32.328125 -32.25 C 32.140625 -30.332031 31.554688 -28.535156 30.578125 -26.859375 C 29.597656 -25.191406 28.359375 -23.695312 26.859375 -22.375 C 25.367188 -21.050781 23.785156 -19.960938 22.109375 -19.109375 C 20.429688 -18.253906 18.816406 -17.695312 17.265625 -17.4375 C 15.722656 -17.175781 14.394531 -17.253906 13.28125 -17.671875 C 13.34375 -16.347656 13.742188 -15.40625 14.484375 -14.84375 C 15.210938 -14.289062 16.1875 -14.132812 17.40625 -14.375 C 18.625 -14.613281 20.007812 -15.132812 21.5625 -15.9375 C 23.113281 -16.738281 24.707031 -17.695312 26.34375 -18.8125 C 27.976562 -19.925781 29.585938 -21.09375 31.171875 -22.3125 C 32.765625 -23.53125 34.222656 -24.695312 35.546875 -25.8125 C 36.867188 -26.9375 37.960938 -27.878906 38.828125 -28.640625 C 39.804688 -29.515625 40.710938 -29.898438 41.546875 -29.796875 C 42.390625 -29.691406 43.085938 -29.316406 43.640625 -28.671875 C 44.203125 -28.023438 44.5625 -27.289062 44.71875 -26.46875 C 44.875 -25.65625 44.773438 -24.96875 44.421875 -24.40625 C 43.347656 -22.738281 42.015625 -20.84375 40.421875 -18.71875 C 38.835938 -16.59375 37.085938 -14.410156 35.171875 -12.171875 C 33.253906 -9.941406 31.222656 -7.816406 29.078125 -5.796875 C 26.941406 -3.773438 24.765625 -2.03125 22.546875 -0.5625 C 20.335938 0.894531 18.171875 1.898438 16.046875 2.453125 Z M 16.046875 2.453125 "/></g></g></g><g fill="#fbc5ff" fill-opacity="1"><g transform="translate(282.385186, 100.772991)"><g><path d="M 62.875 -54.25 C 61.3125 -52.195312 59.519531 -50.097656 57.5 -47.953125 C 55.476562 -45.816406 53.394531 -43.71875 51.25 -41.65625 C 49.101562 -39.601562 47.03125 -37.671875 45.03125 -35.859375 C 43.03125 -34.046875 41.28125 -32.457031 39.78125 -31.09375 C 38.695312 -29.28125 37.875 -27.503906 37.3125 -25.765625 C 36.757812 -24.023438 36.488281 -22.492188 36.5 -21.171875 C 36.519531 -19.847656 36.867188 -18.894531 37.546875 -18.3125 C 38.234375 -17.738281 39.289062 -17.675781 40.71875 -18.125 C 42.144531 -18.582031 43.972656 -19.738281 46.203125 -21.59375 C 47.523438 -22.707031 48.863281 -23.925781 50.21875 -25.25 C 51.582031 -26.570312 52.820312 -27.753906 53.9375 -28.796875 C 54.914062 -29.703125 55.835938 -30.101562 56.703125 -30 C 57.578125 -29.894531 58.300781 -29.484375 58.875 -28.765625 C 59.457031 -28.054688 59.804688 -27.203125 59.921875 -26.203125 C 60.046875 -25.210938 59.8125 -24.265625 59.21875 -23.359375 C 58.238281 -21.859375 57.015625 -20.097656 55.546875 -18.078125 C 54.085938 -16.054688 52.453125 -14 50.640625 -11.90625 C 48.835938 -9.820312 46.929688 -7.890625 44.921875 -6.109375 C 42.921875 -4.335938 40.890625 -2.898438 38.828125 -1.796875 C 36.773438 -0.703125 34.753906 -0.15625 32.765625 -0.15625 C 29.804688 -0.15625 27.125 -0.988281 24.71875 -2.65625 C 22.3125 -4.332031 20.535156 -6.546875 19.390625 -9.296875 C 17.367188 -6.648438 15.609375 -4.617188 14.109375 -3.203125 C 12.609375 -1.796875 11.1875 -0.863281 9.84375 -0.40625 C 8.507812 0.0390625 7.039062 0.191406 5.4375 0.046875 C 2.644531 -0.222656 0.429688 -1.054688 -1.203125 -2.453125 C -2.835938 -3.847656 -3.96875 -5.613281 -4.59375 -7.75 C -5.226562 -9.894531 -5.429688 -12.257812 -5.203125 -14.84375 C -4.972656 -17.425781 -4.378906 -20.066406 -3.421875 -22.765625 C -2.460938 -25.460938 -1.207031 -28.070312 0.34375 -30.59375 C 1.894531 -33.125 3.679688 -35.390625 5.703125 -37.390625 C 7.722656 -39.398438 9.898438 -41.003906 12.234375 -42.203125 C 14.566406 -43.410156 17.003906 -44.03125 19.546875 -44.0625 C 22.367188 -44.0625 24.804688 -43.3125 26.859375 -41.8125 C 28.878906 -45.675781 31.015625 -49.40625 33.265625 -53 C 35.515625 -56.59375 37.71875 -59.832031 39.875 -62.71875 C 42.632812 -66.445312 45.363281 -69.410156 48.0625 -71.609375 C 50.757812 -73.804688 53.316406 -75.335938 55.734375 -76.203125 C 58.160156 -77.078125 60.3125 -77.375 62.1875 -77.09375 C 64.070312 -76.8125 65.597656 -76.050781 66.765625 -74.8125 C 67.941406 -73.582031 68.640625 -71.945312 68.859375 -69.90625 C 69.085938 -67.875 68.726562 -65.53125 67.78125 -62.875 C 66.84375 -60.226562 65.207031 -57.351562 62.875 -54.25 Z M 14.421875 -23.515625 C 15.679688 -25.609375 16.457031 -27.113281 16.75 -28.03125 C 17.050781 -28.957031 17.023438 -29.40625 16.671875 -29.375 C 16.328125 -29.34375 15.785156 -28.890625 15.046875 -28.015625 C 14.316406 -27.140625 13.535156 -25.9375 12.703125 -24.40625 C 11.867188 -22.84375 11.257812 -21.535156 10.875 -20.484375 C 10.488281 -19.441406 10.347656 -18.796875 10.453125 -18.546875 C 10.554688 -18.304688 10.9375 -18.566406 11.59375 -19.328125 C 12.257812 -20.097656 13.203125 -21.492188 14.421875 -23.515625 Z M 14.421875 -23.515625 "/></g></g></g><g clip-path="url(#7113c96a5f)"><g fill="#fbc5ff" fill-opacity="1"><g transform="translate(3.483735, 177.340479)"><g><path d="M 16.890625 2.609375 C 16.191406 4.359375 15.265625 5.601562 14.109375 6.34375 C 12.960938 7.09375 11.707031 7.441406 10.34375 7.390625 C 8.988281 7.335938 7.613281 7 6.21875 6.375 C 4.820312 5.75 3.515625 4.929688 2.296875 3.921875 C 1.078125 2.910156 0.0390625 1.800781 -0.8125 0.59375 C -1.664062 -0.601562 -2.226562 -1.773438 -2.5 -2.921875 C -2.78125 -4.078125 -2.660156 -5.109375 -2.140625 -6.015625 C -1.484375 -7.191406 -0.664062 -8.726562 0.3125 -10.625 C 1.289062 -12.53125 2.363281 -14.640625 3.53125 -16.953125 C 4.695312 -19.273438 5.875 -21.65625 7.0625 -24.09375 C 6.363281 -24.0625 5.65625 -24.019531 4.9375 -23.96875 C 4.226562 -23.914062 3.523438 -23.851562 2.828125 -23.78125 C 1.847656 -23.707031 1.0625 -24.0625 0.46875 -24.84375 C -0.125 -25.632812 -0.515625 -26.628906 -0.703125 -27.828125 C -0.898438 -29.035156 -0.882812 -30.273438 -0.65625 -31.546875 C -0.425781 -32.816406 0.0351562 -33.910156 0.734375 -34.828125 C 1.429688 -35.753906 2.367188 -36.304688 3.546875 -36.484375 C 5.359375 -36.765625 7.335938 -37.035156 9.484375 -37.296875 C 11.628906 -37.554688 13.644531 -37.789062 15.53125 -38 C 16.320312 -39.5 17.015625 -40.753906 17.609375 -41.765625 C 18.203125 -42.773438 18.769531 -43.6875 19.3125 -44.5 C 19.851562 -45.320312 20.410156 -46.191406 20.984375 -47.109375 C 21.554688 -48.035156 22.226562 -49.144531 23 -50.4375 C 20.519531 -50.363281 18.257812 -50.257812 16.21875 -50.125 C 14.1875 -49.988281 12.523438 -49.847656 11.234375 -49.703125 C 10.015625 -49.566406 8.960938 -49.863281 8.078125 -50.59375 C 7.191406 -51.320312 6.46875 -52.347656 5.90625 -53.671875 C 5.34375 -55.003906 4.941406 -56.476562 4.703125 -58.09375 C 4.460938 -59.71875 4.375 -61.382812 4.4375 -63.09375 C 4.507812 -64.800781 4.726562 -66.398438 5.09375 -67.890625 C 5.457031 -69.390625 5.953125 -70.660156 6.578125 -71.703125 C 7.210938 -72.753906 7.984375 -73.4375 8.890625 -73.75 C 10.835938 -74.414062 13.210938 -74.957031 16.015625 -75.375 C 18.828125 -75.789062 21.867188 -76.109375 25.140625 -76.328125 C 28.410156 -76.554688 31.742188 -76.695312 35.140625 -76.75 C 38.546875 -76.800781 41.84375 -76.800781 45.03125 -76.75 C 48.21875 -76.695312 51.109375 -76.59375 53.703125 -76.4375 C 56.296875 -76.28125 58.414062 -76.117188 60.0625 -75.953125 C 63.019531 -75.628906 65.359375 -74.945312 67.078125 -73.90625 C 68.804688 -72.863281 70.035156 -71.570312 70.765625 -70.03125 C 71.503906 -68.5 71.851562 -66.84375 71.8125 -65.0625 C 71.78125 -63.289062 71.476562 -61.5 70.90625 -59.6875 C 70.332031 -57.875 69.597656 -56.148438 68.703125 -54.515625 C 67.816406 -52.878906 66.875 -51.453125 65.875 -50.234375 C 64.882812 -49.015625 63.972656 -48.109375 63.140625 -47.515625 C 62.304688 -46.921875 61.660156 -46.765625 61.203125 -47.046875 C 59.703125 -47.984375 57.425781 -48.703125 54.375 -49.203125 C 51.332031 -49.710938 47.929688 -50.085938 44.171875 -50.328125 C 42.984375 -48.453125 41.925781 -46.613281 41 -44.8125 C 40.082031 -43.019531 39.015625 -41.253906 37.796875 -39.515625 C 41.304688 -39.585938 44.269531 -39.5 46.6875 -39.25 C 49.113281 -39.007812 51.113281 -38.609375 52.6875 -38.046875 C 53.832031 -37.628906 54.625 -36.914062 55.0625 -35.90625 C 55.5 -34.894531 55.65625 -33.757812 55.53125 -32.5 C 55.414062 -31.25 55.101562 -29.992188 54.59375 -28.734375 C 54.09375 -27.484375 53.46875 -26.394531 52.71875 -25.46875 C 51.96875 -24.550781 51.164062 -23.9375 50.3125 -23.625 C 49.457031 -23.3125 48.628906 -23.453125 47.828125 -24.046875 C 47.054688 -24.640625 45.800781 -25.070312 44.0625 -25.34375 C 42.320312 -25.625 40.210938 -25.78125 37.734375 -25.8125 C 35.265625 -25.851562 32.546875 -25.804688 29.578125 -25.671875 C 28.191406 -22.597656 26.804688 -19.546875 25.421875 -16.515625 C 24.046875 -13.484375 22.765625 -10.671875 21.578125 -8.078125 C 20.398438 -5.484375 19.398438 -3.253906 18.578125 -1.390625 C 17.765625 0.472656 17.203125 1.804688 16.890625 2.609375 Z M 16.890625 2.609375 "/></g></g></g></g><g fill="#fbc5ff" fill-opacity="1"><g transform="translate(64.375825, 177.340479)"><g><path d="M 16.046875 2.453125 C 13.222656 3.222656 10.53125 3.300781 7.96875 2.6875 C 5.40625 2.082031 3.148438 0.925781 1.203125 -0.78125 C -0.742188 -2.488281 -2.222656 -4.628906 -3.234375 -7.203125 C -4.242188 -9.785156 -4.628906 -12.644531 -4.390625 -15.78125 C -4.285156 -18.425781 -3.757812 -21.109375 -2.8125 -23.828125 C -1.875 -26.546875 -0.582031 -29.132812 1.0625 -31.59375 C 2.71875 -34.050781 4.648438 -36.226562 6.859375 -38.125 C 9.078125 -40.03125 11.523438 -41.488281 14.203125 -42.5 C 16.890625 -43.507812 19.71875 -43.925781 22.6875 -43.75 C 23.875 -43.675781 25.03125 -43.378906 26.15625 -42.859375 C 27.289062 -42.335938 28.289062 -41.664062 29.15625 -40.84375 C 30.03125 -40.03125 30.695312 -39.132812 31.15625 -38.15625 C 32.125 -36.132812 32.515625 -34.164062 32.328125 -32.25 C 32.140625 -30.332031 31.554688 -28.535156 30.578125 -26.859375 C 29.597656 -25.191406 28.359375 -23.695312 26.859375 -22.375 C 25.367188 -21.050781 23.785156 -19.960938 22.109375 -19.109375 C 20.429688 -18.253906 18.816406 -17.695312 17.265625 -17.4375 C 15.722656 -17.175781 14.394531 -17.253906 13.28125 -17.671875 C 13.34375 -16.347656 13.742188 -15.40625 14.484375 -14.84375 C 15.210938 -14.289062 16.1875 -14.132812 17.40625 -14.375 C 18.625 -14.613281 20.007812 -15.132812 21.5625 -15.9375 C 23.113281 -16.738281 24.707031 -17.695312 26.34375 -18.8125 C 27.976562 -19.925781 29.585938 -21.09375 31.171875 -22.3125 C 32.765625 -23.53125 34.222656 -24.695312 35.546875 -25.8125 C 36.867188 -26.9375 37.960938 -27.878906 38.828125 -28.640625 C 39.804688 -29.515625 40.710938 -29.898438 41.546875 -29.796875 C 42.390625 -29.691406 43.085938 -29.316406 43.640625 -28.671875 C 44.203125 -28.023438 44.5625 -27.289062 44.71875 -26.46875 C 44.875 -25.65625 44.773438 -24.96875 44.421875 -24.40625 C 43.347656 -22.738281 42.015625 -20.84375 40.421875 -18.71875 C 38.835938 -16.59375 37.085938 -14.410156 35.171875 -12.171875 C 33.253906 -9.941406 31.222656 -7.816406 29.078125 -5.796875 C 26.941406 -3.773438 24.765625 -2.03125 22.546875 -0.5625 C 20.335938 0.894531 18.171875 1.898438 16.046875 2.453125 Z M 16.046875 2.453125 "/></g></g></g><g fill="#fbc5ff" fill-opacity="1"><g transform="translate(103.733544, 177.340479)"><g><path d="M 16.046875 2.453125 C 13.222656 3.222656 10.53125 3.300781 7.96875 2.6875 C 5.40625 2.082031 3.148438 0.925781 1.203125 -0.78125 C -0.742188 -2.488281 -2.222656 -4.628906 -3.234375 -7.203125 C -4.242188 -9.785156 -4.628906 -12.644531 -4.390625 -15.78125 C -4.285156 -18.425781 -3.757812 -21.109375 -2.8125 -23.828125 C -1.875 -26.546875 -0.582031 -29.132812 1.0625 -31.59375 C 2.71875 -34.050781 4.648438 -36.226562 6.859375 -38.125 C 9.078125 -40.03125 11.523438 -41.488281 14.203125 -42.5 C 16.890625 -43.507812 19.71875 -43.925781 22.6875 -43.75 C 23.875 -43.675781 25.03125 -43.378906 26.15625 -42.859375 C 27.289062 -42.335938 28.289062 -41.664062 29.15625 -40.84375 C 30.03125 -40.03125 30.695312 -39.132812 31.15625 -38.15625 C 32.125 -36.132812 32.515625 -34.164062 32.328125 -32.25 C 32.140625 -30.332031 31.554688 -28.535156 30.578125 -26.859375 C 29.597656 -25.191406 28.359375 -23.695312 26.859375 -22.375 C 25.367188 -21.050781 23.785156 -19.960938 22.109375 -19.109375 C 20.429688 -18.253906 18.816406 -17.695312 17.265625 -17.4375 C 15.722656 -17.175781 14.394531 -17.253906 13.28125 -17.671875 C 13.34375 -16.347656 13.742188 -15.40625 14.484375 -14.84375 C 15.210938 -14.289062 16.1875 -14.132812 17.40625 -14.375 C 18.625 -14.613281 20.007812 -15.132812 21.5625 -15.9375 C 23.113281 -16.738281 24.707031 -17.695312 26.34375 -18.8125 C 27.976562 -19.925781 29.585938 -21.09375 31.171875 -22.3125 C 32.765625 -23.53125 34.222656 -24.695312 35.546875 -25.8125 C 36.867188 -26.9375 37.960938 -27.878906 38.828125 -28.640625 C 39.804688 -29.515625 40.710938 -29.898438 41.546875 -29.796875 C 42.390625 -29.691406 43.085938 -29.316406 43.640625 -28.671875 C 44.203125 -28.023438 44.5625 -27.289062 44.71875 -26.46875 C 44.875 -25.65625 44.773438 -24.96875 44.421875 -24.40625 C 43.347656 -22.738281 42.015625 -20.84375 40.421875 -18.71875 C 38.835938 -16.59375 37.085938 -14.410156 35.171875 -12.171875 C 33.253906 -9.941406 31.222656 -7.816406 29.078125 -5.796875 C 26.941406 -3.773438 24.765625 -2.03125 22.546875 -0.5625 C 20.335938 0.894531 18.171875 1.898438 16.046875 2.453125 Z M 16.046875 2.453125 "/></g></g></g><g fill="#fbc5ff" fill-opacity="1"><g transform="translate(143.091264, 177.340479)"><g><path d="M 39.828125 -48.8125 C 38.015625 -46.519531 36.046875 -44.171875 33.921875 -41.765625 C 31.796875 -39.359375 29.671875 -37.046875 27.546875 -34.828125 C 25.421875 -32.617188 23.429688 -30.617188 21.578125 -28.828125 C 19.734375 -27.035156 18.171875 -25.582031 16.890625 -24.46875 C 15.835938 -21.882812 15.328125 -19.816406 15.359375 -18.265625 C 15.398438 -16.710938 15.835938 -15.648438 16.671875 -15.078125 C 17.503906 -14.503906 18.585938 -14.359375 19.921875 -14.640625 C 21.273438 -14.910156 22.742188 -15.59375 24.328125 -16.6875 C 25.910156 -17.789062 27.503906 -19.070312 29.109375 -20.53125 C 30.710938 -22 32.21875 -23.445312 33.625 -24.875 C 35.039062 -26.300781 36.253906 -27.503906 37.265625 -28.484375 C 38.171875 -29.316406 39.101562 -29.769531 40.0625 -29.84375 C 41.019531 -29.914062 41.890625 -29.695312 42.671875 -29.1875 C 43.460938 -28.6875 44.070312 -27.960938 44.5 -27.015625 C 44.9375 -26.078125 45.085938 -25.003906 44.953125 -23.796875 C 44.816406 -22.597656 44.296875 -21.335938 43.390625 -20.015625 C 42.484375 -18.691406 41.363281 -17.191406 40.03125 -15.515625 C 38.707031 -13.847656 37.257812 -12.097656 35.6875 -10.265625 C 34.125 -8.441406 32.488281 -6.664062 30.78125 -4.9375 C 29.070312 -3.21875 27.347656 -1.640625 25.609375 -0.203125 C 22.960938 1.953125 20.226562 3.382812 17.40625 4.09375 C 14.582031 4.8125 11.863281 4.910156 9.25 4.390625 C 6.632812 3.867188 4.296875 2.8125 2.234375 1.21875 C 0.179688 -0.363281 -1.425781 -2.375 -2.59375 -4.8125 C -3.757812 -7.25 -4.269531 -10 -4.125 -13.0625 C -4.0625 -15.332031 -3.734375 -17.789062 -3.140625 -20.4375 C -2.546875 -23.082031 -1.65625 -25.921875 -0.46875 -28.953125 C 0.332031 -31.046875 1.4375 -33.519531 2.84375 -36.375 C 4.257812 -39.238281 5.875 -42.28125 7.6875 -45.5 C 9.5 -48.71875 11.445312 -51.9375 13.53125 -55.15625 C 15.625 -58.382812 17.785156 -61.425781 20.015625 -64.28125 C 22.242188 -67.144531 24.441406 -69.625 26.609375 -71.71875 C 29.046875 -74.050781 31.5 -75.675781 33.96875 -76.59375 C 36.445312 -77.519531 38.726562 -77.828125 40.8125 -77.515625 C 42.90625 -77.203125 44.625 -76.3125 45.96875 -74.84375 C 47.3125 -73.382812 48.085938 -71.40625 48.296875 -68.90625 C 48.503906 -66.414062 47.953125 -63.484375 46.640625 -60.109375 C 45.335938 -56.734375 43.066406 -52.96875 39.828125 -48.8125 Z M 39.828125 -48.8125 "/></g></g></g><g fill="#fbc5ff" fill-opacity="1"><g transform="translate(180.201464, 177.340479)"><g><path d="M 22 -22.265625 C 23.851562 -22.023438 25.394531 -21.425781 26.625 -20.46875 C 27.863281 -19.507812 28.863281 -18.398438 29.625 -17.140625 C 30.394531 -15.890625 30.9375 -14.695312 31.25 -13.5625 C 31.570312 -12.425781 31.695312 -11.546875 31.625 -10.921875 C 31.375 -8.140625 30.640625 -5.734375 29.421875 -3.703125 C 28.203125 -1.679688 26.648438 -0.0351562 24.765625 1.234375 C 22.890625 2.503906 20.84375 3.425781 18.625 4 C 16.414062 4.570312 14.1875 4.820312 11.9375 4.75 C 9.695312 4.6875 7.617188 4.320312 5.703125 3.65625 C 4.515625 3.238281 3.40625 2.53125 2.375 1.53125 C 1.351562 0.539062 0.546875 -0.613281 -0.046875 -1.9375 C -0.640625 -3.257812 -0.910156 -4.675781 -0.859375 -6.1875 C -0.804688 -7.707031 -0.3125 -9.21875 0.625 -10.71875 C 1.5 -12.113281 2.507812 -13.097656 3.65625 -13.671875 C 4.8125 -14.242188 5.976562 -14.585938 7.15625 -14.703125 C 8.34375 -14.828125 9.40625 -14.90625 10.34375 -14.9375 C 11.289062 -14.976562 12 -15.113281 12.46875 -15.34375 C 12.9375 -15.570312 13.03125 -16.085938 12.75 -16.890625 C 12.613281 -17.265625 12.097656 -17.722656 11.203125 -18.265625 C 10.316406 -18.804688 9.289062 -19.390625 8.125 -20.015625 C 6.957031 -20.640625 5.847656 -21.226562 4.796875 -21.78125 C 3.753906 -22.34375 3.023438 -22.816406 2.609375 -23.203125 C 1.078125 -24.566406 0.0507812 -26.210938 -0.46875 -28.140625 C -0.988281 -30.078125 -1.046875 -32.125 -0.640625 -34.28125 C -0.242188 -36.445312 0.5625 -38.566406 1.78125 -40.640625 C 3 -42.710938 4.566406 -44.578125 6.484375 -46.234375 C 8.398438 -47.890625 10.617188 -49.175781 13.140625 -50.09375 C 15.671875 -51.019531 18.4375 -51.394531 21.4375 -51.21875 C 25.050781 -51.007812 28.007812 -50.3125 30.3125 -49.125 C 32.613281 -47.945312 34.347656 -46.476562 35.515625 -44.71875 C 36.679688 -42.957031 37.367188 -41.09375 37.578125 -39.125 C 37.785156 -37.15625 37.582031 -35.28125 36.96875 -33.5 C 36.363281 -31.726562 35.453125 -30.234375 34.234375 -29.015625 C 33.191406 -28.003906 31.882812 -27.257812 30.3125 -26.78125 C 28.75 -26.3125 27.140625 -26.101562 25.484375 -26.15625 C 23.828125 -26.207031 22.328125 -26.519531 20.984375 -27.09375 C 19.640625 -27.675781 18.671875 -28.488281 18.078125 -29.53125 C 17.347656 -29.082031 16.84375 -28.394531 16.5625 -27.46875 C 16.289062 -26.539062 16.484375 -25.625 17.140625 -24.71875 C 17.421875 -24.375 17.941406 -23.929688 18.703125 -23.390625 C 19.472656 -22.847656 20.570312 -22.472656 22 -22.265625 Z M 22 -22.265625 "/></g></g></g></g></g></svg>